<?xml version="1.0" encoding="UTF-8" standalone="no"?>
<!DOCTYPE svg PUBLIC "-//W3C//DTD SVG 1.1//EN" "http://www.w3.org/Graphics/SVG/1.1/DTD/svg11.dtd">
<svg width="100%" height="100%" viewBox="0 0 92 64" version="1.1" xmlns="http://www.w3.org/2000/svg" xmlns:xlink="http://www.w3.org/1999/xlink" xml:space="preserve" style="fill-rule:evenodd;clip-rule:evenodd;stroke-linejoin:round;stroke-miterlimit:1.41421;">
    <g transform="matrix(1,0,0,1,-4.02344,-18.185)">
        <path d="M27.393,55.048C27.571,54.739 27.902,54.548 28.259,54.548C28.434,54.548 28.607,54.594 28.759,54.682L38.607,60.368C38.916,60.547 39.107,60.877 39.107,61.234C39.107,61.783 38.656,62.234 38.107,62.234C37.932,62.234 37.759,62.188 37.607,62.101L27.759,56.414C27.45,56.236 27.259,55.905 27.259,55.548C27.259,55.372 27.305,55.2 27.393,55.048L27.393,55.048ZM17.187,55.156C16.913,55.631 16.297,55.796 15.821,55.522L5.651,49.651C4.723,49.19 4.103,48.272 4.023,47.238C4.023,47.233 4.026,47.229 4.026,47.224L4.023,47.212L4.023,41.194L4.025,41.187L4.023,41.178C4.077,40.12 4.701,39.172 5.651,38.705L33.182,22.811C35.24,21.749 37.69,21.749 39.748,22.811L40.734,23.38L49.5,18.319C49.809,18.14 50.191,18.14 50.5,18.319L67.5,28.134C67.809,28.312 68,28.643 68,29L68,39.122L71.667,41.239C71.976,41.417 72.167,41.748 72.167,42.105C72.167,42.653 71.715,43.105 71.167,43.105C70.991,43.105 70.819,43.059 70.667,42.971L68,41.431L68,46.898L68.232,46.764C68.384,46.676 68.557,46.63 68.732,46.63C69.281,46.63 69.732,47.081 69.732,47.63C69.732,47.987 69.541,48.318 69.232,48.496L69.001,48.63L69.232,48.764C69.541,48.942 69.732,49.273 69.732,49.63C69.732,50.178 69.281,50.63 68.732,50.63C68.557,50.63 68.384,50.584 68.232,50.496L67,49.785L52,58.445L52.232,58.579C52.541,58.757 52.732,59.088 52.732,59.445C52.732,59.993 52.281,60.445 51.732,60.445C51.557,60.445 51.384,60.399 51.232,60.311L50,59.6L48.768,60.311C48.616,60.399 48.443,60.445 48.268,60.445C47.719,60.445 47.268,59.993 47.268,59.445C47.268,59.088 47.459,58.757 47.768,58.579L48,58.445L33,49.785L31.768,50.496C31.615,50.584 31.443,50.63 31.267,50.63C30.718,50.63 30.267,50.179 30.267,49.63C30.267,49.273 30.458,48.942 30.768,48.764L30.999,48.63L30.768,48.496C30.458,48.318 30.267,47.987 30.267,47.63C30.267,47.081 30.718,46.629 31.267,46.629C31.443,46.629 31.615,46.676 31.768,46.764L32,46.898L32,29C32,28.643 32.191,28.312 32.5,28.134L38.732,24.536C37.298,23.829 35.613,23.832 34.182,24.543L30.371,26.743L30.371,28.597C30.371,28.636 30.369,28.674 30.364,28.712C30.229,29.764 29.598,30.69 28.668,31.2L18.664,36.976C17.582,37.577 16.353,37.864 15.117,37.804L11.14,37.845L6.651,40.437C6.258,40.664 6.023,40.941 6.023,41.178C6.023,41.415 6.258,41.691 6.651,41.919L21.172,50.302C21.481,50.48 21.672,50.811 21.672,51.168C21.672,51.716 21.22,52.168 20.671,52.168C20.496,52.168 20.324,52.122 20.172,52.034L6.023,43.866L6.023,47.187C6.029,47.421 6.264,47.695 6.651,47.918L16.821,53.79C17.13,53.968 17.322,54.299 17.322,54.656C17.322,54.831 17.275,55.004 17.187,55.156L17.187,55.156ZM34,48.053L49,56.713L49,39.392L34,30.732L34,48.053ZM66,48.053L66,30.732L51,39.392L51,56.713L66,48.053ZM35,29L50,37.66L65,29L50,20.34L35,29ZM28.371,27.898L14.667,35.81L15.146,35.805C16.021,35.858 16.894,35.664 17.664,35.244L27.668,29.468C28.036,29.283 28.297,28.936 28.371,28.531L28.371,27.898ZM33.5,63.419L23.65,57.733C23.498,57.645 23.326,57.599 23.15,57.599C22.601,57.599 22.15,58.05 22.15,58.599C22.15,58.956 22.341,59.287 22.65,59.465L32.5,65.152C32.652,65.239 32.824,65.286 33,65.286C33.548,65.286 34,64.834 34,64.285C34,63.929 33.809,63.598 33.5,63.419L33.5,63.419ZM77.768,56.001L79.5,57.001C79.652,57.089 79.825,57.136 80,57.136C80.549,57.136 81.001,56.684 81.001,56.135C81.001,55.778 80.809,55.447 80.5,55.269L78.768,54.269C78.615,54.181 78.443,54.135 78.267,54.135C77.718,54.135 77.267,54.586 77.267,55.135C77.267,55.492 77.458,55.823 77.768,56.001ZM75.06,52.128L72.94,50.905C72.788,50.817 72.616,50.771 72.44,50.771C71.891,50.771 71.44,51.222 71.44,51.771C71.44,52.128 71.631,52.459 71.94,52.637L74.06,53.86C74.212,53.948 74.384,53.995 74.56,53.995C75.109,53.995 75.56,53.543 75.56,52.994C75.56,52.637 75.369,52.306 75.06,52.128L75.06,52.128ZM38.232,64.084L36.5,65.084C36.191,65.262 36,65.593 36,65.95C36,66.499 36.452,66.95 37,66.95C37.176,66.95 37.348,66.904 37.5,66.816L39.232,65.816C39.541,65.638 39.732,65.307 39.732,64.95C39.732,64.402 39.281,63.95 38.732,63.95C38.557,63.95 38.384,63.996 38.232,64.084ZM44.06,60.72L41.94,61.943C41.632,62.121 41.441,62.452 41.441,62.809C41.441,63.358 41.892,63.809 42.441,63.809C42.616,63.809 42.789,63.763 42.94,63.675L45.06,62.452C45.368,62.274 45.559,61.943 45.559,61.586C45.559,61.038 45.108,60.586 44.559,60.586C44.384,60.586 44.211,60.632 44.06,60.72ZM71.574,45.989C71.849,46.464 72.465,46.629 72.94,46.355L75.06,45.132C75.368,44.953 75.559,44.623 75.559,44.266C75.559,43.717 75.108,43.266 74.559,43.266C74.384,43.266 74.211,43.312 74.06,43.399L71.94,44.623C71.631,44.801 71.44,45.132 71.44,45.489C71.44,45.664 71.486,45.837 71.574,45.989L71.574,45.989ZM78.269,43.124C78.444,43.124 78.616,43.078 78.768,42.99L80.5,41.991C80.809,41.812 81,41.481 81,41.125C81,40.576 80.548,40.125 80,40.125C79.824,40.125 79.652,40.171 79.5,40.258L77.768,41.258C77.459,41.436 77.268,41.767 77.268,42.124C77.268,42.673 77.719,43.124 78.268,43.124C78.268,43.124 78.268,43.124 78.269,43.124L78.269,43.124ZM22.599,54.635C22.42,54.326 22.089,54.135 21.733,54.135C21.557,54.135 21.384,54.181 21.232,54.269L19.5,55.269C19.191,55.448 19,55.778 19,56.135C19,56.684 19.452,57.135 20,57.135C20.176,57.135 20.348,57.089 20.5,57.001L22.232,56.001C22.542,55.823 22.733,55.492 22.733,55.135C22.733,54.96 22.686,54.787 22.599,54.635ZM24.574,53.494C24.849,53.969 25.465,54.134 25.94,53.86L28.06,52.637C28.369,52.459 28.56,52.128 28.56,51.771C28.56,51.222 28.109,50.771 27.56,50.771C27.384,50.771 27.212,50.817 27.06,50.905L24.94,52.128C24.631,52.306 24.44,52.637 24.44,52.994C24.44,53.17 24.486,53.342 24.574,53.494L24.574,53.494ZM61.768,64.084C61.615,63.996 61.443,63.95 61.267,63.95C60.718,63.95 60.267,64.401 60.267,64.95C60.267,65.307 60.458,65.638 60.768,65.816L62.5,66.816C62.652,66.904 62.825,66.951 63,66.951C63.549,66.951 64.001,66.499 64.001,65.95C64.001,65.593 63.809,65.262 63.5,65.084L61.768,64.084ZM55.94,60.72C55.788,60.632 55.616,60.586 55.44,60.586C54.891,60.586 54.44,61.037 54.44,61.586C54.44,61.943 54.631,62.274 54.94,62.452L57.06,63.675C57.211,63.763 57.384,63.809 57.559,63.809C58.108,63.809 58.559,63.358 58.559,62.809C58.559,62.452 58.368,62.121 58.06,61.943L55.94,60.72ZM24.94,45.132L27.06,46.355C27.212,46.443 27.384,46.489 27.56,46.489C28.109,46.489 28.56,46.038 28.56,45.489C28.56,45.132 28.369,44.801 28.06,44.623L25.94,43.399C25.789,43.312 25.616,43.266 25.441,43.266C24.892,43.266 24.441,43.717 24.441,44.266C24.441,44.623 24.632,44.953 24.94,45.132L24.94,45.132ZM20.5,40.258C20.348,40.17 20.176,40.124 20,40.124C19.452,40.124 19,40.576 19,41.124C19,41.481 19.191,41.812 19.5,41.99L21.232,42.99C21.384,43.078 21.557,43.124 21.732,43.124C22.281,43.124 22.732,42.672 22.732,42.124C22.732,41.767 22.541,41.436 22.232,41.258L20.5,40.258ZM96.022,56.78C95.964,55.754 95.355,54.835 94.432,54.382L79.538,45.784C79.386,45.696 79.213,45.649 79.038,45.649C78.489,45.649 78.037,46.101 78.037,46.65C78.037,47.007 78.229,47.338 78.538,47.516L93.432,56.115C93.802,56.329 94.023,56.581 94.023,56.791C94.023,56.973 93.849,57.269 93.356,57.553L65.827,73.447C64.39,74.161 62.698,74.161 61.261,73.447L46.093,64.689C45.941,64.601 45.768,64.555 45.592,64.555C45.044,64.555 44.592,65.007 44.592,65.555C44.592,65.912 44.783,66.243 45.093,66.422L60.261,75.179C62.319,76.241 64.769,76.241 66.827,75.179L94.023,59.477L94.023,62.801C94.018,62.982 93.839,63.274 93.356,63.553L65.827,79.447C64.39,80.161 62.698,80.161 61.261,79.447L41.234,67.885C41.082,67.797 40.91,67.751 40.734,67.751C40.185,67.751 39.734,68.202 39.734,68.751C39.734,69.108 39.925,69.439 40.234,69.617L60.261,81.179C62.319,82.241 64.769,82.241 66.827,81.179L94.356,65.285C95.295,64.825 95.927,63.907 96.021,62.866C96.022,62.862 96.019,62.859 96.02,62.855C96.02,62.848 96.023,62.842 96.023,62.836L96.023,56.788L96.022,56.78Z" style="fill-rule:nonzero;"/>
    </g>
</svg>
