<?xml version="1.0" encoding="UTF-8" standalone="no"?>
<!DOCTYPE svg PUBLIC "-//W3C//DTD SVG 1.1//EN" "http://www.w3.org/Graphics/SVG/1.1/DTD/svg11.dtd">
<svg width="100%" height="100%" viewBox="0 0 25 25" version="1.1" xmlns="http://www.w3.org/2000/svg" xmlns:xlink="http://www.w3.org/1999/xlink" xml:space="preserve" style="fill-rule:evenodd;clip-rule:evenodd;stroke-linejoin:round;stroke-miterlimit:1.41421;">
    <g transform="matrix(0.361219,0,0,0.361219,-33.9357,-5.04856)">
        <g transform="matrix(1,0,0,1,11.0675,-3.81355)">
            <path d="M125.85,25.5C125.598,25.501 125.349,25.435 125.13,25.31L117.5,20.89L109.84,25.31C109.621,25.436 109.373,25.503 109.12,25.503C108.329,25.503 107.677,24.851 107.677,24.06C107.677,23.545 107.954,23.067 108.4,22.81L116.79,18C117.234,17.741 117.786,17.741 118.23,18L126.58,22.83C127.028,23.086 127.305,23.564 127.305,24.08C127.305,24.87 126.655,25.52 125.865,25.52C125.863,25.52 125.862,25.52 125.86,25.52" style="fill-rule:nonzero;"/>
        </g>
        <g transform="matrix(1,0,0,1,11.0675,-3.81355)">
            <path d="M117.5,63.49C117.5,63.49 117.499,63.49 117.499,63.49C116.709,63.49 116.059,62.84 116.059,62.05C116.059,62.033 116.059,62.017 116.06,62L116.06,52.38C116.06,51.59 116.71,50.94 117.5,50.94C118.29,50.94 118.94,51.59 118.94,52.38C118.94,52.38 118.94,62 118.94,62C118.94,62.79 118.29,63.44 117.5,63.44" style="fill-rule:nonzero;"/>
        </g>
        <g transform="matrix(1,0,0,1,11.0675,-3.81355)">
            <path d="M88.8,46.89C88.01,46.89 87.36,46.24 87.36,45.45L87.36,35.79C87.36,35 88.01,34.35 88.8,34.35C89.59,34.35 90.24,35 90.24,35.79C90.24,35.79 90.24,45.45 90.24,45.45C90.24,46.24 89.59,46.89 88.8,46.89" style="fill-rule:nonzero;"/>
        </g>
        <g transform="matrix(1,0,0,1,11.0675,-3.81355)">
            <path d="M146.17,46.89C145.38,46.89 144.73,46.24 144.73,45.45L144.73,35.79C144.73,35 145.38,34.35 146.17,34.35C146.96,34.35 147.61,35 147.61,35.79C147.61,35.79 147.61,45.45 147.61,45.45C147.61,46.24 146.96,46.89 146.17,46.89" style="fill-rule:nonzero;"/>
        </g>
        <g transform="matrix(1,0,0,1,11.0675,-3.81355)">
            <path d="M146.18,70.41C145.401,70.41 144.756,69.779 144.74,69L144.74,59.3C144.74,58.51 145.39,57.86 146.18,57.86C146.97,57.86 147.62,58.51 147.62,59.3L147.62,69C147.62,69.79 146.97,70.44 146.18,70.44L146.18,70.41Z" style="fill-rule:nonzero;"/>
        </g>
        <g transform="matrix(1,0,0,1,11.0675,-3.81355)">
            <path d="M88.8,70.41C88.021,70.41 87.376,69.779 87.36,69L87.36,59.3C87.36,58.51 88.01,57.86 88.8,57.86C89.59,57.86 90.24,58.51 90.24,59.3C90.24,59.3 90.24,69 90.24,69C90.24,69.79 89.59,70.44 88.8,70.44" style="fill-rule:nonzero;"/>
        </g>
        <g transform="matrix(1,0,0,1,11.0675,-3.81355)">
            <path d="M117.5,31.2C116.71,31.2 116.06,30.55 116.06,29.76L116.06,19.23C116.06,18.44 116.71,17.79 117.5,17.79C118.29,17.79 118.94,18.44 118.94,19.23C118.94,19.23 118.94,29.76 118.94,29.76C118.94,30.55 118.29,31.2 117.5,31.2" style="fill-rule:nonzero;"/>
        </g>
        <g transform="matrix(1,0,0,1,11.0675,-3.81355)">
            <path d="M117.5,87C116.71,87 116.06,86.35 116.06,85.56L116.06,75.91C116.06,75.12 116.71,74.47 117.5,74.47C118.29,74.47 118.94,75.12 118.94,75.91C118.94,75.91 118.94,85.57 118.94,85.57C118.935,86.356 118.286,87 117.5,87" style="fill-rule:nonzero;"/>
        </g>
        <g transform="matrix(1,0,0,1,11.0675,-3.81355)">
            <path d="M117.5,87C117.248,87 116.999,86.935 116.78,86.81L108.38,82C107.934,81.743 107.657,81.265 107.657,80.75C107.657,79.959 108.309,79.307 109.1,79.307C109.353,79.307 109.601,79.374 109.82,79.5L117.51,83.95L125.09,79.56C125.249,79.501 125.418,79.471 125.587,79.471C126.377,79.471 127.027,80.121 127.027,80.911C127.027,81.329 126.846,81.727 126.53,82L118.23,86.81C118.011,86.936 117.763,87.001 117.51,87" style="fill-rule:nonzero;"/>
        </g>
        <g transform="matrix(1,0,0,1,11.0675,-3.81355)">
            <path d="M117.5,53.82C117.248,53.82 116.999,53.755 116.78,53.63L108.4,48.79C107.954,48.533 107.677,48.055 107.677,47.54C107.677,46.749 108.329,46.097 109.12,46.097C109.373,46.097 109.621,46.164 109.84,46.29L117.5,50.71L125.13,46.29C125.333,46.186 125.559,46.131 125.788,46.131C126.578,46.131 127.228,46.781 127.228,47.571C127.228,48.059 126.98,48.515 126.57,48.78L118.22,53.62C118.001,53.746 117.753,53.811 117.5,53.81" style="fill-rule:nonzero;"/>
        </g>
        <g transform="matrix(1,0,0,1,11.0675,-3.81355)">
            <path d="M137.81,42.07C137.808,42.07 137.807,42.07 137.805,42.07C137.015,42.07 136.365,41.42 136.365,40.63C136.365,40.114 136.642,39.636 137.09,39.38L145.45,34.55C145.669,34.424 145.917,34.357 146.17,34.357C146.961,34.357 147.613,35.009 147.613,35.8C147.613,36.315 147.336,36.793 146.89,37.05L138.53,41.88C138.311,42.005 138.062,42.071 137.81,42.07" style="fill-rule:nonzero;"/>
        </g>
        <g transform="matrix(1,0,0,1,11.0675,-3.81355)">
            <path d="M146.17,37.23C145.917,37.231 145.669,37.166 145.45,37.04L137.08,32.2C136.634,31.943 136.357,31.465 136.357,30.95C136.357,30.159 137.009,29.507 137.8,29.507C138.053,29.507 138.301,29.574 138.52,29.7L146.89,34.54C147.338,34.796 147.615,35.274 147.615,35.79C147.615,36.58 146.965,37.23 146.175,37.23C146.173,37.23 146.172,37.23 146.17,37.23" style="fill-rule:nonzero;"/>
        </g>
        <g transform="matrix(1,0,0,1,11.0675,-3.81355)">
            <path d="M97.16,42.07C96.908,42.071 96.659,42.005 96.44,41.88L88.08,37C87.634,36.743 87.357,36.265 87.357,35.75C87.357,34.959 88.009,34.307 88.8,34.307C89.053,34.307 89.301,34.374 89.52,34.5L97.89,39.33C98.338,39.586 98.615,40.064 98.615,40.58C98.615,41.37 97.965,42.02 97.175,42.02C97.173,42.02 97.172,42.02 97.17,42.02" style="fill-rule:nonzero;"/>
        </g>
        <g transform="matrix(1,0,0,1,11.0675,-3.81355)">
            <path d="M88.8,37.23C88.798,37.23 88.797,37.23 88.795,37.23C88.005,37.23 87.355,36.58 87.355,35.79C87.355,35.274 87.632,34.796 88.08,34.54L96.44,29.72C96.659,29.594 96.907,29.527 97.16,29.527C97.951,29.527 98.603,30.179 98.603,30.97C98.603,31.485 98.326,31.963 97.88,32.22L89.52,37C89.301,37.125 89.052,37.19 88.8,37.19" style="fill-rule:nonzero;"/>
        </g>
        <g transform="matrix(1,0,0,1,11.0675,-3.81355)">
            <path d="M137.8,75.24C137.798,75.24 137.797,75.24 137.795,75.24C137.005,75.24 136.355,74.59 136.355,73.8C136.355,73.284 136.632,72.806 137.08,72.55L145.46,67.72C145.679,67.594 145.927,67.527 146.18,67.527C146.971,67.527 147.623,68.179 147.623,68.97C147.623,69.485 147.346,69.963 146.9,70.22L138.52,75.05C138.301,75.175 138.052,75.241 137.8,75.24" style="fill-rule:nonzero;"/>
        </g>
        <g transform="matrix(1,0,0,1,11.0675,-3.81355)">
            <path d="M146.17,70.41C145.917,70.411 145.669,70.346 145.45,70.22L137.08,65.39C136.634,65.133 136.357,64.655 136.357,64.14C136.357,63.349 137.009,62.697 137.8,62.697C138.053,62.697 138.301,62.764 138.52,62.89L146.89,67.72C147.338,67.976 147.615,68.454 147.615,68.97C147.615,69.76 146.965,70.41 146.175,70.41C146.173,70.41 146.172,70.41 146.17,70.41" style="fill-rule:nonzero;"/>
        </g>
        <g transform="matrix(1,0,0,1,11.0675,-3.81355)">
            <path d="M97.16,75.25C96.908,75.251 96.659,75.185 96.44,75.06L88.07,70.22C87.624,69.963 87.347,69.485 87.347,68.97C87.347,68.179 87.999,67.527 88.79,67.527C89.043,67.527 89.291,67.594 89.51,67.72L97.88,72.56C98.328,72.816 98.605,73.294 98.605,73.81C98.605,74.6 97.955,75.25 97.165,75.25C97.163,75.25 97.162,75.25 97.16,75.25" style="fill-rule:nonzero;"/>
        </g>
        <g transform="matrix(1,0,0,1,11.0675,-3.81355)">
            <path d="M88.8,70.41C88.798,70.41 88.797,70.41 88.795,70.41C88.005,70.41 87.355,69.76 87.355,68.97C87.355,68.454 87.632,67.976 88.08,67.72L96.43,62.88C96.649,62.754 96.897,62.687 97.15,62.687C97.941,62.687 98.593,63.339 98.593,64.13C98.593,64.645 98.316,65.123 97.87,65.38L89.52,70.21C89.301,70.335 89.052,70.401 88.8,70.4" style="fill-rule:nonzero;"/>
        </g>
        <g transform="matrix(1,0,0,1,11.0675,-3.81355)">
            <path d="M88.8,36.61C88.35,36.61 87.98,36.24 87.98,35.79C87.98,35.498 88.137,35.226 88.39,35.08L117.1,18.51C117.222,18.442 117.359,18.407 117.498,18.407C117.948,18.407 118.318,18.777 118.318,19.227C118.318,19.515 118.166,19.782 117.92,19.93L89.21,36.5C89.085,36.572 88.944,36.61 88.8,36.61" style="fill-opacity:0.2;fill-rule:nonzero;"/>
        </g>
        <g transform="matrix(1,0,0,1,11.0675,-3.81355)">
            <path d="M88.8,69.79C88.35,69.79 87.98,69.42 87.98,68.97C87.98,68.678 88.137,68.406 88.39,68.26L145.76,35.08C145.882,35.012 146.019,34.977 146.158,34.977C146.608,34.977 146.978,35.347 146.978,35.797C146.978,36.085 146.826,36.352 146.58,36.5L89.21,69.68C89.085,69.752 88.944,69.79 88.8,69.79" style="fill-opacity:0.2;fill-rule:nonzero;"/>
        </g>
        <g transform="matrix(1,0,0,1,11.0675,-3.81355)">
            <path d="M146.17,36.61C146.026,36.61 145.885,36.572 145.76,36.5L117.09,19.94C116.844,19.792 116.692,19.525 116.692,19.237C116.692,18.787 117.062,18.417 117.512,18.417C117.651,18.417 117.788,18.452 117.91,18.52L146.58,35.09C146.833,35.236 146.99,35.508 146.99,35.8C146.99,36.25 146.62,36.62 146.17,36.62" style="fill-opacity:0.2;fill-rule:nonzero;"/>
        </g>
        <g transform="matrix(1,0,0,1,11.0675,-3.81355)">
            <path d="M146.17,69.79C146.026,69.79 145.884,69.752 145.76,69.68L88.39,36.5C88.144,36.352 87.992,36.085 87.992,35.797C87.992,35.347 88.362,34.977 88.812,34.977C88.951,34.977 89.088,35.012 89.21,35.08L146.59,68.26C146.843,68.406 147,68.678 147,68.97C147,69.42 146.63,69.79 146.18,69.79" style="fill-opacity:0.2;fill-rule:nonzero;"/>
        </g>
        <g transform="matrix(1,0,0,1,11.0675,-3.81355)">
            <path d="M117.5,86.4C117.356,86.4 117.215,86.362 117.09,86.29L88.39,69.68C88.144,69.532 87.992,69.265 87.992,68.977C87.992,68.527 88.362,68.157 88.812,68.157C88.951,68.157 89.088,68.192 89.21,68.26L117.92,84.87C118.173,85.016 118.33,85.288 118.33,85.58C118.33,86.03 117.96,86.4 117.51,86.4" style="fill-opacity:0.2;fill-rule:nonzero;"/>
        </g>
        <g transform="matrix(1,0,0,1,11.0675,-3.81355)">
            <path d="M117.51,86.4C117.06,86.4 116.69,86.03 116.69,85.58C116.69,85.288 116.847,85.016 117.1,84.87L145.77,68.26C145.892,68.192 146.029,68.157 146.168,68.157C146.618,68.157 146.988,68.527 146.988,68.977C146.988,69.265 146.836,69.532 146.59,69.68L117.92,86.29C117.795,86.362 117.654,86.4 117.51,86.4" style="fill-opacity:0.2;fill-rule:nonzero;"/>
        </g>
        <g transform="matrix(1,0,0,1,11.0675,-3.81355)">
            <path d="M88.8,69.79C88.369,69.78 88.016,69.431 88,69L88,35.79C88,35.34 88.37,34.97 88.82,34.97C89.27,34.97 89.64,35.34 89.64,35.79L89.64,69C89.64,69.45 89.27,69.82 88.82,69.82" style="fill-opacity:0.2;fill-rule:nonzero;"/>
        </g>
        <g transform="matrix(1,0,0,1,11.0675,-3.81355)">
            <path d="M146.18,69.79C145.73,69.79 145.36,69.42 145.36,68.97L145.36,35.79C145.36,35.34 145.73,34.97 146.18,34.97C146.63,34.97 147,35.34 147,35.79C147,35.79 147,69 147,69C147,69.45 146.63,69.82 146.18,69.82" style="fill-opacity:0.2;fill-rule:nonzero;"/>
        </g>
        <g transform="matrix(1,0,0,1,11.0675,-3.81355)">
            <path d="M117.5,86.3C117.05,86.3 116.68,85.93 116.68,85.48L116.68,19.23C116.68,18.78 117.05,18.41 117.5,18.41C117.95,18.41 118.32,18.78 118.32,19.23L118.32,85.48C118.32,85.93 117.95,86.3 117.5,86.3" style="fill-opacity:0.2;fill-rule:nonzero;"/>
        </g>
    </g>
</svg>
