<?xml version="1.0" encoding="UTF-8" standalone="no"?>
<!DOCTYPE svg PUBLIC "-//W3C//DTD SVG 1.1//EN" "http://www.w3.org/Graphics/SVG/1.1/DTD/svg11.dtd">
<svg width="100%" height="100%" viewBox="0 0 46 29" version="1.1" xmlns="http://www.w3.org/2000/svg" xmlns:xlink="http://www.w3.org/1999/xlink" xml:space="preserve" style="fill-rule:evenodd;clip-rule:evenodd;stroke-linejoin:round;stroke-miterlimit:1.41421;">
    <g transform="matrix(1,0,0,1,-38.7556,-50.1666)">
        <g transform="matrix(0.357683,0,0,0.367994,53.7856,46.769)">
            <path d="M52.336,34.342C52.531,34.537 52.787,34.635 53.043,34.635C53.299,34.635 53.555,34.537 53.75,34.343C54.141,33.952 54.141,33.319 53.751,32.928L53.044,32.22C52.653,31.829 52.02,31.83 51.629,32.22C51.238,32.611 51.238,33.244 51.629,33.635L52.336,34.342ZM56.578,38.17C56.834,38.17 57.09,38.072 57.285,37.877C57.676,37.487 57.676,36.854 57.285,36.463L56.579,35.755C56.188,35.364 55.555,35.365 55.164,35.755C54.773,36.146 54.773,36.779 55.164,37.169L55.871,37.877C56.066,38.073 56.322,38.17 56.578,38.17ZM85.247,37.321L80.056,32.13C79.665,31.739 79.033,31.739 78.642,32.13C77.202,33.57 75.287,34.363 73.249,34.363C71.213,34.363 69.298,33.57 67.858,32.13C64.886,29.158 64.885,24.32 67.856,21.347C68.247,20.956 68.247,20.323 67.856,19.933L62.665,14.742C61.46,13.534 59.37,13.516 58.186,14.703L48.269,24.621C47.878,25.012 47.878,25.644 48.269,26.035C48.66,26.426 49.292,26.426 49.683,26.035L59.601,16.117C60.031,15.686 60.798,15.705 61.25,16.156L65.771,20.677C62.707,24.454 62.931,30.032 66.444,33.545C68.261,35.363 70.678,36.364 73.249,36.364C75.483,36.364 77.603,35.607 79.312,34.216L83.833,38.737C84.298,39.203 84.314,39.943 83.87,40.388L73.952,50.306C73.561,50.696 73.561,51.329 73.952,51.72C74.147,51.915 74.403,52.013 74.659,52.013C74.915,52.013 75.171,51.915 75.366,51.72L85.284,41.803C86.508,40.576 86.491,38.566 85.247,37.321ZM71.831,52.424L40.402,83.854C39.958,84.298 39.218,84.283 38.752,83.817L34.231,79.296C37.291,75.518 37.065,69.942 33.556,66.433C30.046,62.919 24.47,62.695 20.692,65.758L16.17,61.237C15.938,61.005 15.81,60.7 15.81,60.378C15.81,60.076 15.925,59.796 16.134,59.587L47.566,28.157C47.957,27.766 47.957,27.134 47.566,26.743C47.175,26.352 46.543,26.352 46.152,26.743L14.719,58.171C14.132,58.758 13.809,59.541 13.809,60.377C13.809,61.233 14.145,62.041 14.756,62.65L19.947,67.841C20.338,68.232 20.97,68.231 21.361,67.842C24.335,64.872 29.17,64.872 32.141,67.846C35.11,70.815 35.112,75.651 32.146,78.626C31.756,79.017 31.757,79.649 32.147,80.039L37.339,85.23C37.968,85.859 38.793,86.174 39.612,86.174C40.414,86.174 41.212,85.872 41.817,85.267L73.246,53.836C73.637,53.445 73.637,52.813 73.246,52.422C72.855,52.031 72.222,52.033 71.831,52.424ZM49.508,28.685C49.117,28.294 48.485,28.294 48.094,28.685C47.703,29.076 47.703,29.708 48.094,30.099L48.801,30.806C48.996,31.001 49.252,31.099 49.508,31.099C49.764,31.099 50.02,31.001 50.215,30.806C50.606,30.415 50.606,29.783 50.215,29.392L49.508,28.685ZM70.72,52.313C70.976,52.313 71.232,52.215 71.427,52.02C71.818,51.629 71.818,50.997 71.427,50.606L70.72,49.899C70.329,49.508 69.697,49.508 69.306,49.899C68.915,50.29 68.915,50.922 69.306,51.313L70.013,52.02C70.208,52.215 70.464,52.313 70.72,52.313ZM60.113,41.706C60.369,41.706 60.625,41.608 60.82,41.413C61.211,41.022 61.211,40.39 60.82,39.999L60.113,39.292C59.722,38.901 59.09,38.901 58.699,39.292C58.308,39.683 58.308,40.315 58.699,40.706L59.406,41.413C59.602,41.608 59.857,41.706 60.113,41.706ZM67.185,48.777C67.441,48.777 67.697,48.679 67.892,48.484C68.283,48.093 68.283,47.461 67.892,47.07L67.185,46.363C66.794,45.972 66.162,45.972 65.771,46.363C65.38,46.754 65.38,47.386 65.771,47.777L66.478,48.484C66.673,48.679 66.929,48.777 67.185,48.777ZM63.649,45.242C63.905,45.242 64.162,45.144 64.357,44.949C64.747,44.557 64.747,43.925 64.356,43.534L63.648,42.827C63.257,42.438 62.624,42.437 62.233,42.828C61.843,43.22 61.843,43.852 62.234,44.243L62.942,44.95C63.138,45.144 63.394,45.242 63.649,45.242Z" style="fill-rule:nonzero;"/>
        </g>
        <g transform="matrix(0.304931,-0.18696,0.192349,0.313721,23.1061,57.2915)">
            <path d="M52.336,34.342C52.531,34.537 52.787,34.635 53.043,34.635C53.299,34.635 53.555,34.537 53.75,34.343C54.141,33.952 54.141,33.319 53.751,32.928L53.044,32.22C52.653,31.829 52.02,31.83 51.629,32.22C51.238,32.611 51.238,33.244 51.629,33.635L52.336,34.342ZM56.578,38.17C56.834,38.17 57.09,38.072 57.285,37.877C57.676,37.487 57.676,36.854 57.285,36.463L56.579,35.755C56.188,35.364 55.555,35.365 55.164,35.755C54.773,36.146 54.773,36.779 55.164,37.169L55.871,37.877C56.066,38.073 56.322,38.17 56.578,38.17ZM85.247,37.321L80.056,32.13C79.665,31.739 79.033,31.739 78.642,32.13C77.202,33.57 75.287,34.363 73.249,34.363C71.213,34.363 69.298,33.57 67.858,32.13C64.886,29.158 64.885,24.32 67.856,21.347C68.247,20.956 68.247,20.323 67.856,19.933L62.665,14.742C61.46,13.534 59.37,13.516 58.186,14.703L48.269,24.621C47.878,25.012 47.878,25.644 48.269,26.035C48.66,26.426 49.292,26.426 49.683,26.035L59.601,16.117C60.031,15.686 60.798,15.705 61.25,16.156L65.771,20.677C62.707,24.454 62.931,30.032 66.444,33.545C68.261,35.363 70.678,36.364 73.249,36.364C75.483,36.364 77.603,35.607 79.312,34.216L83.833,38.737C84.298,39.203 84.314,39.943 83.87,40.388L73.952,50.306C73.561,50.696 73.561,51.329 73.952,51.72C74.147,51.915 74.403,52.013 74.659,52.013C74.915,52.013 75.171,51.915 75.366,51.72L85.284,41.803C86.508,40.576 86.491,38.566 85.247,37.321ZM71.831,52.424L40.402,83.854C39.958,84.298 39.218,84.283 38.752,83.817L34.231,79.296C37.291,75.518 37.065,69.942 33.556,66.433C30.046,62.919 24.47,62.695 20.692,65.758L16.17,61.237C15.938,61.005 15.81,60.7 15.81,60.378C15.81,60.076 15.925,59.796 16.134,59.587L47.566,28.157C47.957,27.766 47.957,27.134 47.566,26.743C47.175,26.352 46.543,26.352 46.152,26.743L14.719,58.171C14.132,58.758 13.809,59.541 13.809,60.377C13.809,61.233 14.145,62.041 14.756,62.65L19.947,67.841C20.338,68.232 20.97,68.231 21.361,67.842C24.335,64.872 29.17,64.872 32.141,67.846C35.11,70.815 35.112,75.651 32.146,78.626C31.756,79.017 31.757,79.649 32.147,80.039L37.339,85.23C37.968,85.859 38.793,86.174 39.612,86.174C40.414,86.174 41.212,85.872 41.817,85.267L73.246,53.836C73.637,53.445 73.637,52.813 73.246,52.422C72.855,52.031 72.222,52.033 71.831,52.424ZM49.508,28.685C49.117,28.294 48.485,28.294 48.094,28.685C47.703,29.076 47.703,29.708 48.094,30.099L48.801,30.806C48.996,31.001 49.252,31.099 49.508,31.099C49.764,31.099 50.02,31.001 50.215,30.806C50.606,30.415 50.606,29.783 50.215,29.392L49.508,28.685ZM70.72,52.313C70.976,52.313 71.232,52.215 71.427,52.02C71.818,51.629 71.818,50.997 71.427,50.606L70.72,49.899C70.329,49.508 69.697,49.508 69.306,49.899C68.915,50.29 68.915,50.922 69.306,51.313L70.013,52.02C70.208,52.215 70.464,52.313 70.72,52.313ZM60.113,41.706C60.369,41.706 60.625,41.608 60.82,41.413C61.211,41.022 61.211,40.39 60.82,39.999L60.113,39.292C59.722,38.901 59.09,38.901 58.699,39.292C58.308,39.683 58.308,40.315 58.699,40.706L59.406,41.413C59.602,41.608 59.857,41.706 60.113,41.706ZM67.185,48.777C67.441,48.777 67.697,48.679 67.892,48.484C68.283,48.093 68.283,47.461 67.892,47.07L67.185,46.363C66.794,45.972 66.162,45.972 65.771,46.363C65.38,46.754 65.38,47.386 65.771,47.777L66.478,48.484C66.673,48.679 66.929,48.777 67.185,48.777ZM63.649,45.242C63.905,45.242 64.162,45.144 64.357,44.949C64.747,44.557 64.747,43.925 64.356,43.534L63.648,42.827C63.257,42.438 62.624,42.437 62.233,42.828C61.843,43.22 61.843,43.852 62.234,44.243L62.942,44.95C63.138,45.144 63.394,45.242 63.649,45.242Z" style="fill-rule:nonzero;"/>
        </g>
        <g transform="matrix(0.128625,0.0278043,-0.0278043,0.128625,42.1427,59.9554)">
            <path d="M30,33.5C29.177,33.5 28.5,34.177 28.5,35L28.5,65C28.5,65.823 29.177,66.5 30,66.5C30.823,66.5 31.5,65.823 31.5,65L31.5,35C31.5,34.177 30.823,33.5 30,33.5Z" style="fill-rule:nonzero;"/>
        </g>
        <g transform="matrix(0.128625,0.0278043,-0.0278043,0.128625,42.1427,59.9554)">
            <path d="M35,33.5C34.177,33.5 33.5,34.177 33.5,35L33.5,45C33.5,45.823 34.177,46.5 35,46.5C35.823,46.5 36.5,45.823 36.5,45L36.5,35C36.5,34.177 35.823,33.5 35,33.5Z" style="fill-rule:nonzero;"/>
        </g>
        <g transform="matrix(0.128625,0.0278043,-0.0278043,0.128625,42.1427,59.9554)">
            <path d="M35,48.5C34.177,48.5 33.5,49.177 33.5,50L33.5,60C33.5,60.823 34.177,61.5 35,61.5C35.823,61.5 36.5,60.823 36.5,60L36.5,50C36.5,49.177 35.823,48.5 35,48.5Z" style="fill-rule:nonzero;"/>
        </g>
        <g transform="matrix(0.128625,0.0278043,-0.0278043,0.128625,42.1427,59.9554)">
            <path d="M40,33.5C39.177,33.5 38.5,34.177 38.5,35L38.5,50C38.5,50.823 39.177,51.5 40,51.5C40.823,51.5 41.5,50.823 41.5,50L41.5,35C41.5,34.177 40.823,33.5 40,33.5Z" style="fill-rule:nonzero;"/>
        </g>
        <g transform="matrix(0.128625,0.0278043,-0.0278043,0.128625,42.1427,59.9554)">
            <path d="M40,53.5C39.177,53.5 38.5,54.177 38.5,55L38.5,60C38.5,60.823 39.177,61.5 40,61.5C40.823,61.5 41.5,60.823 41.5,60L41.5,55C41.5,54.177 40.823,53.5 40,53.5Z" style="fill-rule:nonzero;"/>
        </g>
        <g transform="matrix(0.128625,0.0278043,-0.0278043,0.128625,42.1427,59.9554)">
            <path d="M45,33.5C44.177,33.5 43.5,34.177 43.5,35L43.5,60C43.5,60.823 44.177,61.5 45,61.5C45.823,61.5 46.5,60.823 46.5,60L46.5,35C46.5,34.177 45.823,33.5 45,33.5Z" style="fill-rule:nonzero;"/>
        </g>
        <g transform="matrix(0.128625,0.0278043,-0.0278043,0.128625,42.1427,59.9554)">
            <path d="M50,33.5C49.177,33.5 48.5,34.177 48.5,35L48.5,40C48.5,40.823 49.177,41.5 50,41.5C50.823,41.5 51.5,40.823 51.5,40L51.5,35C51.5,34.177 50.823,33.5 50,33.5Z" style="fill-rule:nonzero;"/>
        </g>
        <g transform="matrix(0.128625,0.0278043,-0.0278043,0.128625,42.1427,59.9554)">
            <path d="M50,43.5C49.177,43.5 48.5,44.177 48.5,45L48.5,60C48.5,60.823 49.177,61.5 50,61.5C50.823,61.5 51.5,60.823 51.5,60L51.5,45C51.5,44.177 50.823,43.5 50,43.5Z" style="fill-rule:nonzero;"/>
        </g>
        <g transform="matrix(0.128625,0.0278043,-0.0278043,0.128625,42.1427,59.9554)">
            <path d="M55,33.5C54.177,33.5 53.5,34.177 53.5,35L53.5,40C53.5,40.823 54.177,41.5 55,41.5C55.823,41.5 56.5,40.823 56.5,40L56.5,35C56.5,34.177 55.823,33.5 55,33.5Z" style="fill-rule:nonzero;"/>
        </g>
        <g transform="matrix(0.128625,0.0278043,-0.0278043,0.128625,42.1427,59.9554)">
            <path d="M55,43.5C54.177,43.5 53.5,44.177 53.5,45L53.5,60C53.5,60.823 54.177,61.5 55,61.5C55.823,61.5 56.5,60.823 56.5,60L56.5,45C56.5,44.177 55.823,43.5 55,43.5Z" style="fill-rule:nonzero;"/>
        </g>
        <g transform="matrix(0.128625,0.0278043,-0.0278043,0.128625,42.1427,59.9554)">
            <path d="M60,33.5C59.177,33.5 58.5,34.177 58.5,35L58.5,45C58.5,45.823 59.177,46.5 60,46.5C60.823,46.5 61.5,45.823 61.5,45L61.5,35C61.5,34.177 60.823,33.5 60,33.5Z" style="fill-rule:nonzero;"/>
        </g>
        <g transform="matrix(0.128625,0.0278043,-0.0278043,0.128625,42.1427,59.9554)">
            <path d="M60,48.5C59.177,48.5 58.5,49.177 58.5,50L58.5,60C58.5,60.823 59.177,61.5 60,61.5C60.823,61.5 61.5,60.823 61.5,60L61.5,50C61.5,49.177 60.823,48.5 60,48.5Z" style="fill-rule:nonzero;"/>
        </g>
        <g transform="matrix(0.128625,0.0278043,-0.0278043,0.128625,42.1427,59.9554)">
            <path d="M65,33.5C64.177,33.5 63.5,34.177 63.5,35L63.5,60C63.5,60.823 64.177,61.5 65,61.5C65.823,61.5 66.5,60.823 66.5,60L66.5,35C66.5,34.177 65.823,33.5 65,33.5Z" style="fill-rule:nonzero;"/>
        </g>
        <g transform="matrix(0.128625,0.0278043,-0.0278043,0.128625,42.1427,59.9554)">
            <path d="M70,33.5C69.177,33.5 68.5,34.177 68.5,35L68.5,65C68.5,65.823 69.177,66.5 70,66.5C70.823,66.5 71.5,65.823 71.5,65L71.5,35C71.5,34.177 70.823,33.5 70,33.5Z" style="fill-rule:nonzero;"/>
        </g>
        <g transform="matrix(0.0910635,0.0949996,-0.0949996,0.0910635,68.9687,59.064)">
            <path d="M30,33.5C29.177,33.5 28.5,34.177 28.5,35L28.5,65C28.5,65.823 29.177,66.5 30,66.5C30.823,66.5 31.5,65.823 31.5,65L31.5,35C31.5,34.177 30.823,33.5 30,33.5Z" style="fill-rule:nonzero;"/>
        </g>
        <g transform="matrix(0.0910635,0.0949996,-0.0949996,0.0910635,68.9687,59.064)">
            <path d="M35,33.5C34.177,33.5 33.5,34.177 33.5,35L33.5,45C33.5,45.823 34.177,46.5 35,46.5C35.823,46.5 36.5,45.823 36.5,45L36.5,35C36.5,34.177 35.823,33.5 35,33.5Z" style="fill-rule:nonzero;"/>
        </g>
        <g transform="matrix(0.0910635,0.0949996,-0.0949996,0.0910635,68.9687,59.064)">
            <path d="M35,48.5C34.177,48.5 33.5,49.177 33.5,50L33.5,60C33.5,60.823 34.177,61.5 35,61.5C35.823,61.5 36.5,60.823 36.5,60L36.5,50C36.5,49.177 35.823,48.5 35,48.5Z" style="fill-rule:nonzero;"/>
        </g>
        <g transform="matrix(0.0910635,0.0949996,-0.0949996,0.0910635,68.9687,59.064)">
            <path d="M40,33.5C39.177,33.5 38.5,34.177 38.5,35L38.5,50C38.5,50.823 39.177,51.5 40,51.5C40.823,51.5 41.5,50.823 41.5,50L41.5,35C41.5,34.177 40.823,33.5 40,33.5Z" style="fill-rule:nonzero;"/>
        </g>
        <g transform="matrix(0.0910635,0.0949996,-0.0949996,0.0910635,68.9687,59.064)">
            <path d="M40,53.5C39.177,53.5 38.5,54.177 38.5,55L38.5,60C38.5,60.823 39.177,61.5 40,61.5C40.823,61.5 41.5,60.823 41.5,60L41.5,55C41.5,54.177 40.823,53.5 40,53.5Z" style="fill-rule:nonzero;"/>
        </g>
        <g transform="matrix(0.0910635,0.0949996,-0.0949996,0.0910635,68.9687,59.064)">
            <path d="M45,33.5C44.177,33.5 43.5,34.177 43.5,35L43.5,60C43.5,60.823 44.177,61.5 45,61.5C45.823,61.5 46.5,60.823 46.5,60L46.5,35C46.5,34.177 45.823,33.5 45,33.5Z" style="fill-rule:nonzero;"/>
        </g>
        <g transform="matrix(0.0910635,0.0949996,-0.0949996,0.0910635,68.9687,59.064)">
            <path d="M50,33.5C49.177,33.5 48.5,34.177 48.5,35L48.5,40C48.5,40.823 49.177,41.5 50,41.5C50.823,41.5 51.5,40.823 51.5,40L51.5,35C51.5,34.177 50.823,33.5 50,33.5Z" style="fill-rule:nonzero;"/>
        </g>
        <g transform="matrix(0.0910635,0.0949996,-0.0949996,0.0910635,68.9687,59.064)">
            <path d="M50,43.5C49.177,43.5 48.5,44.177 48.5,45L48.5,60C48.5,60.823 49.177,61.5 50,61.5C50.823,61.5 51.5,60.823 51.5,60L51.5,45C51.5,44.177 50.823,43.5 50,43.5Z" style="fill-rule:nonzero;"/>
        </g>
        <g transform="matrix(0.0910635,0.0949996,-0.0949996,0.0910635,68.9687,59.064)">
            <path d="M55,33.5C54.177,33.5 53.5,34.177 53.5,35L53.5,40C53.5,40.823 54.177,41.5 55,41.5C55.823,41.5 56.5,40.823 56.5,40L56.5,35C56.5,34.177 55.823,33.5 55,33.5Z" style="fill-rule:nonzero;"/>
        </g>
        <g transform="matrix(0.0910635,0.0949996,-0.0949996,0.0910635,68.9687,59.064)">
            <path d="M55,43.5C54.177,43.5 53.5,44.177 53.5,45L53.5,60C53.5,60.823 54.177,61.5 55,61.5C55.823,61.5 56.5,60.823 56.5,60L56.5,45C56.5,44.177 55.823,43.5 55,43.5Z" style="fill-rule:nonzero;"/>
        </g>
        <g transform="matrix(0.0910635,0.0949996,-0.0949996,0.0910635,68.9687,59.064)">
            <path d="M60,33.5C59.177,33.5 58.5,34.177 58.5,35L58.5,45C58.5,45.823 59.177,46.5 60,46.5C60.823,46.5 61.5,45.823 61.5,45L61.5,35C61.5,34.177 60.823,33.5 60,33.5Z" style="fill-rule:nonzero;"/>
        </g>
        <g transform="matrix(0.0910635,0.0949996,-0.0949996,0.0910635,68.9687,59.064)">
            <path d="M60,48.5C59.177,48.5 58.5,49.177 58.5,50L58.5,60C58.5,60.823 59.177,61.5 60,61.5C60.823,61.5 61.5,60.823 61.5,60L61.5,50C61.5,49.177 60.823,48.5 60,48.5Z" style="fill-rule:nonzero;"/>
        </g>
        <g transform="matrix(0.0910635,0.0949996,-0.0949996,0.0910635,68.9687,59.064)">
            <path d="M65,33.5C64.177,33.5 63.5,34.177 63.5,35L63.5,60C63.5,60.823 64.177,61.5 65,61.5C65.823,61.5 66.5,60.823 66.5,60L66.5,35C66.5,34.177 65.823,33.5 65,33.5Z" style="fill-rule:nonzero;"/>
        </g>
        <g transform="matrix(0.0910635,0.0949996,-0.0949996,0.0910635,68.9687,59.064)">
            <path d="M70,33.5C69.177,33.5 68.5,34.177 68.5,35L68.5,65C68.5,65.823 69.177,66.5 70,66.5C70.823,66.5 71.5,65.823 71.5,65L71.5,35C71.5,34.177 70.823,33.5 70,33.5Z" style="fill-rule:nonzero;"/>
        </g>
    </g>
</svg>
