<?xml version="1.0" encoding="UTF-8" standalone="no"?>
<!DOCTYPE svg PUBLIC "-//W3C//DTD SVG 1.1//EN" "http://www.w3.org/Graphics/SVG/1.1/DTD/svg11.dtd">
<svg width="100%" height="100%" viewBox="0 0 273 409" version="1.1" xmlns="http://www.w3.org/2000/svg" xmlns:xlink="http://www.w3.org/1999/xlink" xml:space="preserve" style="fill-rule:evenodd;clip-rule:evenodd;stroke-linejoin:round;stroke-miterlimit:1.41421;">
    <g transform="matrix(1,0,0,1,-324.012,-323.976)">
        <g transform="matrix(0.65809,0,0,0.741243,274.101,254.448)">
            <path d="M489.311,125.187C489.311,107.864 473.47,93.799 453.958,93.799L111.195,93.799C91.683,93.799 75.842,107.864 75.842,125.187L75.842,612.974C75.842,630.297 91.683,644.361 111.195,644.361L453.958,644.361C473.47,644.361 489.311,630.297 489.311,612.974L489.311,125.187Z" style="fill:rgb(243,235,223);"/>
            <clipPath id="_clip1">
                <path d="M489.311,125.187C489.311,107.864 473.47,93.799 453.958,93.799L111.195,93.799C91.683,93.799 75.842,107.864 75.842,125.187L75.842,612.974C75.842,630.297 91.683,644.361 111.195,644.361L453.958,644.361C473.47,644.361 489.311,630.297 489.311,612.974L489.311,125.187Z"/>
            </clipPath>
            <g clip-path="url(#_clip1)">
                <g transform="matrix(0.314944,0,0,0.0487711,-120.235,557.621)">
                    <rect x="608.881" y="270.197" width="1340.23" height="1508.32" style="fill:rgb(225,188,133);"/>
                </g>
                <g transform="matrix(0.191644,0,0,0.170125,-16.9363,511.722)">
                    <path d="M699.667,422.103C699.667,420.395 700.52,419.542 702.228,419.542L718.346,419.542C720.054,419.542 720.907,420.395 720.907,422.103L720.907,522.431C720.907,524.138 720.054,524.992 718.346,524.992L702.228,524.992C700.52,524.992 699.667,524.138 699.667,522.431L699.667,481.757C699.667,481.155 699.365,480.854 698.763,480.854L665.772,480.854C665.169,480.854 664.868,481.155 664.868,481.757L664.868,522.431C664.868,524.138 664.014,524.992 662.307,524.992L646.188,524.992C644.481,524.992 643.627,524.138 643.627,522.431L643.627,422.103C643.627,420.395 644.481,419.542 646.188,419.542L662.307,419.542C664.014,419.542 664.868,420.395 664.868,422.103L664.868,461.722C664.868,462.324 665.169,462.626 665.772,462.626L698.763,462.626C699.365,462.626 699.667,462.324 699.667,461.722L699.667,422.103Z" style="fill:white;fill-rule:nonzero;"/>
                    <path d="M771.975,526.197C763.439,526.197 756.158,523.988 750.132,519.569C744.106,515.15 739.989,509.124 737.779,501.492C736.373,496.771 735.67,491.65 735.67,486.126C735.67,480 736.424,474.677 737.93,470.158C740.24,462.726 744.382,456.901 750.358,452.683C756.333,448.465 763.589,446.356 772.126,446.356C780.361,446.356 787.416,448.465 793.291,452.683C799.166,456.901 803.259,462.676 805.569,470.007C807.075,474.627 807.828,479.899 807.828,485.825C807.828,491.047 807.176,496.119 805.87,501.04C803.56,508.873 799.417,515.024 793.442,519.493C787.466,523.963 780.311,526.197 771.975,526.197ZM771.975,507.969C775.189,507.969 777.951,506.965 780.261,504.956C782.57,502.948 784.228,500.186 785.232,496.671C786.035,493.959 786.437,490.444 786.437,486.126C786.437,481.908 786.035,478.343 785.232,475.43C784.228,472.016 782.57,469.354 780.261,467.446C777.951,465.538 775.089,464.584 771.674,464.584C768.36,464.584 765.548,465.538 763.238,467.446C760.928,469.354 759.271,472.016 758.267,475.43C757.463,478.343 757.062,481.908 757.062,486.126C757.062,490.244 757.463,493.759 758.267,496.671C759.271,500.186 760.953,502.948 763.313,504.956C765.673,506.965 768.561,507.969 771.975,507.969Z" style="fill:white;fill-rule:nonzero;"/>
                    <path d="M838.108,524.992C836.702,524.992 835.747,524.289 835.245,522.883L814.005,450.424C813.904,450.223 813.854,449.921 813.854,449.52C813.854,448.214 814.607,447.561 816.114,447.561L832.684,447.561C834.291,447.561 835.245,448.315 835.547,449.821L845.941,494.411C846.041,494.813 846.242,495.014 846.544,495.014C846.845,495.014 847.046,494.813 847.146,494.411L858.294,449.821C858.595,448.315 859.549,447.561 861.156,447.561L875.919,447.561C877.526,447.561 878.48,448.315 878.781,449.821L890.23,494.562C890.33,494.964 890.531,495.165 890.833,495.165C891.134,495.165 891.335,494.964 891.435,494.562L902.884,449.821C903.185,448.315 904.139,447.561 905.746,447.561L922.317,447.712C923.221,447.712 923.849,447.988 924.2,448.541C924.552,449.093 924.627,449.771 924.426,450.574L902.884,522.883C902.382,524.289 901.428,524.992 900.022,524.992L883.15,524.992C881.744,524.992 880.79,524.289 880.288,522.883L868.989,483.414C868.789,483.013 868.563,482.812 868.311,482.812C868.06,482.812 867.885,483.013 867.784,483.414L857.842,522.732C857.541,524.239 856.586,524.992 854.98,524.992L838.108,524.992Z" style="fill:white;fill-rule:nonzero;"/>
                    <path d="M1027.47,524.992C1026.16,524.992 1025.16,524.339 1024.45,523.034L1005.92,482.059C1005.72,481.557 1005.37,481.305 1004.87,481.305L991.161,481.305C990.558,481.305 990.257,481.607 990.257,482.209L990.257,522.431C990.257,524.138 989.403,524.992 987.696,524.992L971.577,524.992C969.87,524.992 969.016,524.138 969.016,522.431L969.016,421.952C969.016,420.245 969.87,419.391 971.577,419.391L1013.91,419.391C1020.34,419.391 1025.99,420.722 1030.86,423.383C1035.73,426.045 1039.49,429.786 1042.15,434.606C1044.82,439.427 1046.15,444.95 1046.15,451.177C1046.15,458.006 1044.44,463.881 1041.02,468.802C1037.61,473.723 1032.89,477.188 1026.86,479.196C1026.56,479.297 1026.36,479.473 1026.26,479.724C1026.16,479.975 1026.21,480.201 1026.41,480.402L1046.3,521.979C1046.6,522.381 1046.75,522.833 1046.75,523.335C1046.75,523.837 1046.55,524.239 1046.15,524.54C1045.74,524.841 1045.19,524.992 1044.49,524.992L1027.47,524.992ZM991.161,437.77C990.558,437.77 990.257,438.071 990.257,438.673L990.257,463.981C990.257,464.584 990.558,464.885 991.161,464.885L1010.74,464.885C1014.96,464.885 1018.4,463.655 1021.06,461.195C1023.73,458.734 1025.06,455.495 1025.06,451.478C1025.06,447.461 1023.73,444.172 1021.06,441.611C1018.4,439.05 1014.96,437.77 1010.74,437.77L991.161,437.77Z" style="fill:white;fill-rule:nonzero;"/>
                    <path d="M1094.2,526.197C1085.66,526.197 1078.38,523.988 1072.36,519.569C1066.33,515.15 1062.21,509.124 1060.01,501.492C1058.6,496.771 1057.9,491.65 1057.9,486.126C1057.9,480 1058.65,474.677 1060.15,470.158C1062.46,462.726 1066.61,456.901 1072.58,452.683C1078.56,448.465 1085.82,446.356 1094.35,446.356C1102.59,446.356 1109.64,448.465 1115.52,452.683C1121.39,456.901 1125.48,462.676 1127.79,470.007C1129.3,474.627 1130.05,479.899 1130.05,485.825C1130.05,491.047 1129.4,496.119 1128.1,501.04C1125.79,508.873 1121.64,515.024 1115.67,519.493C1109.69,523.963 1102.54,526.197 1094.2,526.197ZM1094.2,507.969C1097.41,507.969 1100.18,506.965 1102.49,504.956C1104.8,502.948 1106.45,500.186 1107.46,496.671C1108.26,493.959 1108.66,490.444 1108.66,486.126C1108.66,481.908 1108.26,478.343 1107.46,475.43C1106.45,472.016 1104.8,469.354 1102.49,467.446C1100.18,465.538 1097.31,464.584 1093.9,464.584C1090.59,464.584 1087.77,465.538 1085.46,467.446C1083.15,469.354 1081.5,472.016 1080.49,475.43C1079.69,478.343 1079.29,481.908 1079.29,486.126C1079.29,490.244 1079.69,493.759 1080.49,496.671C1081.5,500.186 1083.18,502.948 1085.54,504.956C1087.9,506.965 1090.79,507.969 1094.2,507.969Z" style="fill:white;fill-rule:nonzero;"/>
                    <path d="M1230.38,446.356C1238.22,446.356 1244.34,448.716 1248.76,453.436C1253.18,458.157 1255.39,464.785 1255.39,473.321L1255.39,522.431C1255.39,524.138 1254.54,524.992 1252.83,524.992L1236.71,524.992C1235,524.992 1234.15,524.138 1234.15,522.431L1234.15,477.991C1234.15,473.874 1233.09,470.61 1230.99,468.199C1228.88,465.789 1226.06,464.584 1222.55,464.584C1219.03,464.584 1216.17,465.789 1213.96,468.199C1211.75,470.61 1210.65,473.823 1210.65,477.841L1210.65,522.431C1210.65,524.138 1209.79,524.992 1208.09,524.992L1192.12,524.992C1190.41,524.992 1189.56,524.138 1189.56,522.431L1189.56,477.991C1189.56,473.974 1188.45,470.735 1186.24,468.275C1184.03,465.814 1181.17,464.584 1177.66,464.584C1174.44,464.584 1171.76,465.538 1169.6,467.446C1167.44,469.354 1166.16,472.016 1165.76,475.43L1165.76,522.431C1165.76,524.138 1164.9,524.992 1163.19,524.992L1147.08,524.992C1145.37,524.992 1144.52,524.138 1144.52,522.431L1144.52,450.122C1144.52,448.415 1145.37,447.561 1147.08,447.561L1163.19,447.561C1164.9,447.561 1165.76,448.415 1165.76,450.122L1165.76,454.943C1165.76,455.345 1165.88,455.596 1166.13,455.696C1166.38,455.797 1166.61,455.646 1166.81,455.244C1170.93,449.319 1177.26,446.356 1185.79,446.356C1190.81,446.356 1195.18,447.386 1198.9,449.444C1202.61,451.503 1205.48,454.491 1207.48,458.408C1207.59,458.809 1207.76,458.985 1208.01,458.935C1208.26,458.885 1208.49,458.709 1208.69,458.408C1211,454.391 1214.01,451.378 1217.73,449.369C1221.44,447.361 1225.66,446.356 1230.38,446.356Z" style="fill:white;fill-rule:nonzero;"/>
                    <path d="M1302.09,446.356C1308.62,446.356 1314.44,447.486 1319.56,449.746C1324.68,452.005 1328.68,455.094 1331.54,459.01C1334.4,462.927 1335.83,467.296 1335.83,472.116L1335.83,522.431C1335.83,524.138 1334.98,524.992 1333.27,524.992L1317.15,524.992C1315.44,524.992 1314.59,524.138 1314.59,522.431L1314.59,518.816C1314.59,518.414 1314.49,518.188 1314.29,518.138C1314.09,518.087 1313.84,518.213 1313.54,518.514C1308.92,523.636 1302.04,526.197 1292.9,526.197C1285.17,526.197 1278.94,524.289 1274.22,520.473C1269.5,516.656 1267.14,511.032 1267.14,503.601C1267.14,495.868 1269.85,489.867 1275.27,485.599C1280.7,481.331 1288.43,479.196 1298.47,479.196L1313.69,479.196C1314.29,479.196 1314.59,478.895 1314.59,478.293L1314.59,475.129C1314.59,471.815 1313.56,469.229 1311.5,467.371C1309.44,465.513 1306.46,464.584 1302.54,464.584C1299.53,464.584 1297.04,465.086 1295.08,466.09C1293.12,467.095 1291.79,468.501 1291.09,470.308C1290.49,471.714 1289.48,472.367 1288.08,472.267L1271.36,470.158C1270.55,470.057 1269.93,469.831 1269.47,469.48C1269.02,469.128 1268.85,468.651 1268.95,468.049C1269.45,463.931 1271.18,460.215 1274.14,456.901C1277.11,453.587 1281.02,451.001 1285.89,449.143C1290.77,447.285 1296.16,446.356 1302.09,446.356ZM1299.08,510.38C1303.39,510.38 1307.06,509.225 1310.07,506.915C1313.09,504.605 1314.59,501.642 1314.59,498.027L1314.59,492.754C1314.59,492.152 1314.29,491.85 1313.69,491.85L1302.99,491.85C1298.47,491.85 1294.91,492.704 1292.3,494.411C1289.68,496.119 1288.38,498.529 1288.38,501.642C1288.38,504.354 1289.36,506.488 1291.32,508.045C1293.28,509.601 1295.86,510.38 1299.08,510.38Z" style="fill:white;fill-rule:nonzero;"/>
                    <path d="M1391.72,446.356C1399.76,446.356 1406.23,448.817 1411.15,453.738C1416.08,458.659 1418.54,465.337 1418.54,473.773L1418.54,522.431C1418.54,524.138 1417.68,524.992 1415.97,524.992L1399.86,524.992C1398.15,524.992 1397.3,524.138 1397.3,522.431L1397.3,478.142C1397.3,474.125 1396.19,470.861 1393.98,468.35C1391.77,465.839 1388.81,464.584 1385.09,464.584C1381.38,464.584 1378.36,465.839 1376.05,468.35C1373.74,470.861 1372.59,474.125 1372.59,478.142L1372.59,522.431C1372.59,524.138 1371.74,524.992 1370.03,524.992L1353.91,524.992C1352.2,524.992 1351.35,524.138 1351.35,522.431L1351.35,450.122C1351.35,448.415 1352.2,447.561 1353.91,447.561L1370.03,447.561C1371.74,447.561 1372.59,448.415 1372.59,450.122L1372.59,454.34C1372.59,454.742 1372.69,454.993 1372.89,455.094C1373.09,455.194 1373.29,455.094 1373.49,454.792C1377.61,449.168 1383.69,446.356 1391.72,446.356Z" style="fill:white;fill-rule:nonzero;"/>
                    <path d="M1495.51,524.992C1494.11,524.992 1493.15,524.289 1492.65,522.883L1462.07,422.404C1461.97,422.203 1461.92,421.902 1461.92,421.5C1461.92,420.195 1462.67,419.542 1464.18,419.542L1481.65,419.542C1483.06,419.542 1484.02,420.245 1484.52,421.651L1504.25,494.261C1504.35,494.662 1504.55,494.863 1504.85,494.863C1505.15,494.863 1505.36,494.662 1505.46,494.261L1524.89,421.801C1525.39,420.295 1526.35,419.542 1527.75,419.542L1544.77,419.542C1545.68,419.542 1546.33,419.818 1546.73,420.37C1547.13,420.923 1547.18,421.601 1546.88,422.404L1515.85,522.883C1515.35,524.289 1514.39,524.992 1512.99,524.992L1495.51,524.992Z" style="fill:white;fill-rule:nonzero;"/>
                    <path d="M1581.83,446.356C1588.36,446.356 1594.18,447.486 1599.31,449.746C1604.43,452.005 1608.42,455.094 1611.28,459.01C1614.14,462.927 1615.58,467.296 1615.58,472.116L1615.58,522.431C1615.58,524.138 1614.72,524.992 1613.02,524.992L1596.9,524.992C1595.19,524.992 1594.34,524.138 1594.34,522.431L1594.34,518.816C1594.34,518.414 1594.24,518.188 1594.03,518.138C1593.83,518.087 1593.58,518.213 1593.28,518.514C1588.66,523.636 1581.78,526.197 1572.64,526.197C1564.91,526.197 1558.68,524.289 1553.96,520.473C1549.24,516.656 1546.88,511.032 1546.88,503.601C1546.88,495.868 1549.6,489.867 1555.02,485.599C1560.44,481.331 1568.17,479.196 1578.22,479.196L1593.43,479.196C1594.03,479.196 1594.34,478.895 1594.34,478.293L1594.34,475.129C1594.34,471.815 1593.31,469.229 1591.25,467.371C1589.19,465.513 1586.2,464.584 1582.28,464.584C1579.27,464.584 1576.79,465.086 1574.83,466.09C1572.87,467.095 1571.54,468.501 1570.84,470.308C1570.23,471.714 1569.23,472.367 1567.82,472.267L1551.1,470.158C1550.3,470.057 1549.67,469.831 1549.22,469.48C1548.77,469.128 1548.59,468.651 1548.69,468.049C1549.19,463.931 1550.92,460.215 1553.89,456.901C1556.85,453.587 1560.77,451.001 1565.64,449.143C1570.51,447.285 1575.91,446.356 1581.83,446.356ZM1578.82,510.38C1583.14,510.38 1586.8,509.225 1589.82,506.915C1592.83,504.605 1594.34,501.642 1594.34,498.027L1594.34,492.754C1594.34,492.152 1594.03,491.85 1593.43,491.85L1582.74,491.85C1578.22,491.85 1574.65,492.704 1572.04,494.411C1569.43,496.119 1568.12,498.529 1568.12,501.642C1568.12,504.354 1569.1,506.488 1571.06,508.045C1573.02,509.601 1575.61,510.38 1578.82,510.38Z" style="fill:white;fill-rule:nonzero;"/>
                    <path d="M1661.97,526.046C1655.25,526.046 1649.37,525.092 1644.35,523.184C1639.33,521.276 1635.46,518.615 1632.75,515.2C1630.04,511.786 1628.68,507.919 1628.68,503.601L1628.68,502.847C1628.68,501.14 1629.54,500.286 1631.24,500.286L1646.46,500.286C1648.16,500.286 1649.02,500.588 1649.02,501.19L1649.02,502.245C1649.02,504.454 1650.22,506.337 1652.63,507.894C1655.05,509.451 1658.11,510.229 1661.82,510.229C1665.24,510.229 1668,509.576 1670.11,508.271C1672.22,506.965 1673.27,505.258 1673.27,503.149C1673.27,501.341 1672.37,499.985 1670.56,499.081C1668.75,498.177 1665.79,497.223 1661.67,496.219C1656.75,494.914 1653.09,493.759 1650.68,492.754C1644.15,490.545 1638.98,487.833 1635.16,484.62C1631.34,481.406 1629.44,476.786 1629.44,470.76C1629.44,463.329 1632.35,457.429 1638.17,453.06C1644,448.691 1651.63,446.507 1661.07,446.507C1667.5,446.507 1673.15,447.536 1678.02,449.595C1682.89,451.654 1686.65,454.541 1689.32,458.257C1691.98,461.973 1693.31,466.191 1693.31,470.911C1693.31,471.413 1693.08,471.84 1692.63,472.192C1692.18,472.543 1691.55,472.719 1690.75,472.719L1675.98,472.719C1674.28,472.719 1673.42,472.417 1673.42,471.815L1673.42,470.911C1673.42,468.702 1672.32,466.844 1670.11,465.337C1667.9,463.831 1664.94,463.078 1661.22,463.078C1657.91,463.078 1655.17,463.68 1653.01,464.885C1650.85,466.09 1649.77,467.748 1649.77,469.857C1649.77,471.865 1650.8,473.372 1652.86,474.376C1654.92,475.38 1658.31,476.435 1663.03,477.539C1665.94,478.142 1668.75,478.895 1671.47,479.799C1678.7,481.908 1684.37,484.62 1688.49,487.934C1692.61,491.248 1694.66,496.068 1694.66,502.395C1694.66,509.827 1691.7,515.627 1685.78,519.795C1679.85,523.963 1671.92,526.046 1661.97,526.046Z" style="fill:white;fill-rule:nonzero;"/>
                    <path d="M1744.98,508.271C1751.61,507.969 1756.68,505.659 1760.19,501.341C1760.8,500.638 1761.45,500.286 1762.15,500.286C1762.76,500.286 1763.31,500.538 1763.81,501.04L1772.4,509.325C1773,509.928 1773.3,510.53 1773.3,511.133C1773.3,511.836 1773.1,512.438 1772.7,512.94C1769.38,517.058 1765.14,520.297 1759.97,522.657C1754.8,525.017 1749.15,526.197 1743.02,526.197C1733.78,526.197 1726.12,523.837 1720.05,519.117C1713.97,514.397 1709.88,507.919 1707.77,499.684C1706.57,495.265 1705.96,490.595 1705.96,485.674C1705.96,479.849 1706.52,474.928 1707.62,470.911C1709.63,463.479 1713.67,457.504 1719.75,452.985C1725.82,448.465 1733.03,446.206 1741.36,446.206C1751.2,446.206 1759.01,449.118 1764.79,454.943C1770.56,460.768 1774.3,468.953 1776.01,479.498C1776.41,482.812 1776.71,486.478 1776.91,490.495C1776.91,492.202 1776.06,493.056 1774.35,493.056L1728.11,493.056C1727.5,493.056 1727.2,493.357 1727.2,493.959C1727.5,496.068 1727.86,497.625 1728.26,498.629C1729.26,501.743 1731.25,504.128 1734.21,505.785C1737.17,507.442 1740.76,508.271 1744.98,508.271ZM1741.06,464.584C1737.85,464.584 1735.16,465.362 1733,466.919C1730.84,468.476 1729.36,470.66 1728.56,473.472C1728.06,475.38 1727.76,476.635 1727.65,477.238C1727.55,477.841 1727.81,478.142 1728.41,478.142L1754.02,478.142C1754.52,478.142 1754.77,477.941 1754.77,477.539C1754.77,476.435 1754.57,475.28 1754.17,474.075C1753.26,471.162 1751.71,468.852 1749.5,467.145C1747.29,465.438 1744.48,464.584 1741.06,464.584Z" style="fill:white;fill-rule:nonzero;"/>
                    <path d="M1821.66,526.046C1814.93,526.046 1809.05,525.092 1804.03,523.184C1799.01,521.276 1795.14,518.615 1792.43,515.2C1789.72,511.786 1788.36,507.919 1788.36,503.601L1788.36,502.847C1788.36,501.14 1789.22,500.286 1790.92,500.286L1806.14,500.286C1807.85,500.286 1808.7,500.588 1808.7,501.19L1808.7,502.245C1808.7,504.454 1809.91,506.337 1812.32,507.894C1814.73,509.451 1817.79,510.229 1821.51,510.229C1824.92,510.229 1827.68,509.576 1829.79,508.271C1831.9,506.965 1832.95,505.258 1832.95,503.149C1832.95,501.341 1832.05,499.985 1830.24,499.081C1828.43,498.177 1825.47,497.223 1821.36,496.219C1816.43,494.914 1812.77,493.759 1810.36,492.754C1803.83,490.545 1798.66,487.833 1794.84,484.62C1791.03,481.406 1789.12,476.786 1789.12,470.76C1789.12,463.329 1792.03,457.429 1797.85,453.06C1803.68,448.691 1811.31,446.507 1820.75,446.507C1827.18,446.507 1832.83,447.536 1837.7,449.595C1842.57,451.654 1846.34,454.541 1849,458.257C1851.66,461.973 1852.99,466.191 1852.99,470.911C1852.99,471.413 1852.76,471.84 1852.31,472.192C1851.86,472.543 1851.23,472.719 1850.43,472.719L1835.67,472.719C1833.96,472.719 1833.11,472.417 1833.11,471.815L1833.11,470.911C1833.11,468.702 1832,466.844 1829.79,465.337C1827.58,463.831 1824.62,463.078 1820.9,463.078C1817.59,463.078 1814.85,463.68 1812.69,464.885C1810.53,466.09 1809.45,467.748 1809.45,469.857C1809.45,471.865 1810.48,473.372 1812.54,474.376C1814.6,475.38 1817.99,476.435 1822.71,477.539C1825.62,478.142 1828.43,478.895 1831.15,479.799C1838.38,481.908 1844.05,484.62 1848.17,487.934C1852.29,491.248 1854.35,496.068 1854.35,502.395C1854.35,509.827 1851.38,515.627 1845.46,519.795C1839.53,523.963 1831.6,526.046 1821.66,526.046Z" style="fill:white;fill-rule:nonzero;"/>
                    <path d="M666.676,683.14C665.069,683.14 664.115,682.387 663.814,680.881L637.3,580.552C637.2,580.351 637.15,580.1 637.15,579.799C637.15,578.393 637.953,577.69 639.56,577.69L656.733,577.69C658.24,577.69 659.144,578.443 659.445,579.95L673.605,640.056C673.706,640.458 673.907,640.659 674.208,640.659C674.509,640.659 674.71,640.458 674.81,640.056L688.368,579.95C688.67,578.443 689.574,577.69 691.08,577.69L708.103,577.69C709.709,577.69 710.664,578.443 710.965,579.95L725.728,640.056C725.828,640.458 726.004,640.659 726.255,640.659C726.506,640.659 726.682,640.458 726.782,640.056L740.34,579.95C740.642,578.443 741.545,577.69 743.052,577.69L759.472,577.69C760.376,577.69 761.003,577.966 761.355,578.519C761.706,579.071 761.782,579.749 761.581,580.552L737.327,680.881C737.026,682.387 736.072,683.14 734.465,683.14L717.894,683.14C716.288,683.14 715.333,682.387 715.032,680.881L699.968,616.857C699.867,616.456 699.667,616.255 699.365,616.255C699.064,616.255 698.863,616.456 698.763,616.857L684.753,680.881C684.452,682.387 683.548,683.14 682.041,683.14L666.676,683.14Z" style="fill:white;fill-rule:nonzero;"/>
                    <path d="M801.049,666.419C807.678,666.118 812.749,663.808 816.264,659.489C816.867,658.786 817.52,658.435 818.223,658.435C818.825,658.435 819.378,658.686 819.88,659.188L828.466,667.473C829.069,668.076 829.37,668.679 829.37,669.281C829.37,669.984 829.169,670.587 828.768,671.089C825.454,675.206 821.21,678.445 816.038,680.805C810.866,683.165 805.217,684.345 799.091,684.345C789.852,684.345 782.194,681.985 776.118,677.265C770.042,672.545 765.95,666.067 763.841,657.832C762.635,653.413 762.033,648.743 762.033,643.822C762.033,637.998 762.585,633.077 763.69,629.059C765.698,621.628 769.741,615.652 775.817,611.133C781.893,606.614 789.098,604.354 797.434,604.354C807.276,604.354 815.084,607.266 820.859,613.091C826.634,618.916 830.375,627.101 832.082,637.646C832.484,640.96 832.785,644.626 832.986,648.643C832.986,650.35 832.132,651.204 830.425,651.204L784.177,651.204C783.575,651.204 783.273,651.505 783.273,652.108C783.575,654.217 783.926,655.773 784.328,656.778C785.332,659.891 787.316,662.276 790.278,663.933C793.241,665.59 796.831,666.419 801.049,666.419ZM797.133,622.732C793.919,622.732 791.232,623.511 789.073,625.067C786.914,626.624 785.433,628.808 784.629,631.62C784.127,633.528 783.826,634.784 783.725,635.386C783.625,635.989 783.876,636.29 784.479,636.29L810.088,636.29C810.59,636.29 810.841,636.089 810.841,635.688C810.841,634.583 810.64,633.428 810.239,632.223C809.335,629.31 807.778,627.001 805.569,625.293C803.359,623.586 800.547,622.732 797.133,622.732Z" style="fill:white;fill-rule:nonzero;"/>
                    <path d="M885.409,604.655C888.623,604.655 891.285,605.258 893.394,606.463C894.599,607.065 895.051,608.12 894.749,609.626L891.887,625.444C891.787,626.348 891.511,626.9 891.059,627.101C890.607,627.302 889.879,627.302 888.874,627.101C887.267,626.699 885.811,626.498 884.506,626.498C883.803,626.498 882.648,626.599 881.041,626.8C877.425,627.101 874.362,628.432 871.852,630.792C869.341,633.152 868.086,636.29 868.086,640.207L868.086,680.579C868.086,682.287 867.232,683.14 865.525,683.14L849.406,683.14C847.699,683.14 846.845,682.287 846.845,680.579L846.845,608.271C846.845,606.563 847.699,605.71 849.406,605.71L865.525,605.71C867.232,605.71 868.086,606.563 868.086,608.271L868.086,612.941C868.086,613.342 868.186,613.593 868.387,613.694C868.588,613.794 868.839,613.694 869.14,613.393C873.157,607.568 878.58,604.655 885.409,604.655Z" style="fill:white;fill-rule:nonzero;"/>
                    <path d="M940.695,666.419C947.324,666.118 952.395,663.808 955.91,659.489C956.513,658.786 957.166,658.435 957.869,658.435C958.471,658.435 959.024,658.686 959.526,659.188L968.113,667.473C968.715,668.076 969.016,668.679 969.016,669.281C969.016,669.984 968.816,670.587 968.414,671.089C965.1,675.206 960.857,678.445 955.684,680.805C950.512,683.165 944.863,684.345 938.737,684.345C929.498,684.345 921.84,681.985 915.764,677.265C909.688,672.545 905.596,666.067 903.487,657.832C902.282,653.413 901.679,648.743 901.679,643.822C901.679,637.998 902.231,633.077 903.336,629.059C905.345,621.628 909.387,615.652 915.463,611.133C921.539,606.614 928.744,604.354 937.08,604.354C946.922,604.354 954.73,607.266 960.505,613.091C966.28,618.916 970.021,627.101 971.728,637.646C972.13,640.96 972.431,644.626 972.632,648.643C972.632,650.35 971.778,651.204 970.071,651.204L923.823,651.204C923.221,651.204 922.92,651.505 922.92,652.108C923.221,654.217 923.572,655.773 923.974,656.778C924.978,659.891 926.962,662.276 929.925,663.933C932.887,665.59 936.477,666.419 940.695,666.419ZM936.779,622.732C933.565,622.732 930.879,623.511 928.719,625.067C926.56,626.624 925.079,628.808 924.275,631.62C923.773,633.528 923.472,634.784 923.372,635.386C923.271,635.989 923.522,636.29 924.125,636.29L949.734,636.29C950.236,636.29 950.487,636.089 950.487,635.688C950.487,634.583 950.286,633.428 949.885,632.223C948.981,629.31 947.424,627.001 945.215,625.293C943.005,623.586 940.193,622.732 936.779,622.732Z" style="fill:white;fill-rule:nonzero;"/>
                    <path d="M1021.44,683.14C1019.73,683.14 1018.88,682.287 1018.88,680.579L1018.88,580.251C1018.88,578.544 1019.73,577.69 1021.44,577.69L1037.56,577.69C1038.87,577.69 1039.87,578.242 1040.57,579.347L1062.41,614.598C1062.62,614.899 1062.84,615.05 1063.09,615.05C1063.34,615.05 1063.52,614.899 1063.62,614.598L1085.77,579.347C1086.47,578.242 1087.47,577.69 1088.78,577.69L1104.9,577.69C1106.6,577.69 1107.46,578.544 1107.46,580.251L1107.46,680.579C1107.46,682.287 1106.6,683.14 1104.9,683.14L1088.78,683.14C1087.07,683.14 1086.22,682.287 1086.22,680.579L1086.22,615.351C1086.22,614.949 1086.09,614.698 1085.84,614.598C1085.59,614.497 1085.36,614.648 1085.16,615.05L1069.95,639.906C1069.24,641.01 1068.24,641.563 1066.93,641.563L1059.25,641.563C1057.95,641.563 1056.94,641.01 1056.24,639.906L1041.17,615.05C1040.97,614.648 1040.75,614.497 1040.5,614.598C1040.25,614.698 1040.12,614.949 1040.12,615.351L1040.12,680.579C1040.12,682.287 1039.27,683.14 1037.56,683.14L1021.44,683.14Z" style="fill:white;fill-rule:nonzero;"/>
                    <path d="M1156.27,604.505C1162.79,604.505 1168.62,605.634 1173.74,607.894C1178.86,610.154 1182.85,613.242 1185.72,617.159C1188.58,621.075 1190.01,625.444 1190.01,630.265L1190.01,680.579C1190.01,682.287 1189.16,683.14 1187.45,683.14L1171.33,683.14C1169.62,683.14 1168.77,682.287 1168.77,680.579L1168.77,676.964C1168.77,676.562 1168.67,676.336 1168.47,676.286C1168.27,676.236 1168.02,676.361 1167.71,676.663C1163.1,681.784 1156.21,684.345 1147.08,684.345C1139.34,684.345 1133.12,682.437 1128.4,678.621C1123.68,674.805 1121.32,669.181 1121.32,661.749C1121.32,654.016 1124.03,648.015 1129.45,643.747C1134.87,639.479 1142.61,637.345 1152.65,637.345L1167.87,637.345C1168.47,637.345 1168.77,637.043 1168.77,636.441L1168.77,633.277C1168.77,629.963 1167.74,627.377 1165.68,625.519C1163.62,623.661 1160.63,622.732 1156.72,622.732C1153.7,622.732 1151.22,623.235 1149.26,624.239C1147.3,625.243 1145.97,626.649 1145.27,628.457C1144.67,629.863 1143.66,630.516 1142.26,630.415L1125.54,628.306C1124.73,628.206 1124.1,627.98 1123.65,627.628C1123.2,627.277 1123.02,626.8 1123.12,626.197C1123.63,622.08 1125.36,618.364 1128.32,615.05C1131.28,611.735 1135.2,609.149 1140.07,607.291C1144.94,605.434 1150.34,604.505 1156.27,604.505ZM1153.25,668.528C1157.57,668.528 1161.24,667.373 1164.25,665.063C1167.26,662.753 1168.77,659.791 1168.77,656.175L1168.77,650.903C1168.77,650.3 1168.47,649.999 1167.87,649.999L1157.17,649.999C1152.65,649.999 1149.09,650.852 1146.47,652.56C1143.86,654.267 1142.56,656.677 1142.56,659.791C1142.56,662.502 1143.54,664.636 1145.5,666.193C1147.45,667.75 1150.04,668.528 1153.25,668.528Z" style="fill:white;fill-rule:nonzero;"/>
                    <path d="M1252.23,580.251C1252.23,578.544 1253.08,577.69 1254.79,577.69L1270.9,577.69C1272.61,577.69 1273.47,578.544 1273.47,580.251L1273.47,680.579C1273.47,682.287 1272.61,683.14 1270.9,683.14L1254.79,683.14C1253.08,683.14 1252.23,682.287 1252.23,680.579L1252.23,676.512C1252.23,676.11 1252.1,675.884 1251.85,675.834C1251.6,675.784 1251.37,675.909 1251.17,676.211C1247.05,681.634 1241.33,684.345 1234,684.345C1227.17,684.345 1221.12,682.312 1215.85,678.244C1210.57,674.177 1206.93,668.829 1204.92,662.201C1203.22,657.38 1202.36,651.355 1202.36,644.124C1202.36,636.692 1203.32,630.465 1205.23,625.444C1207.43,619.017 1211.08,613.895 1216.15,610.078C1221.22,606.262 1227.17,604.354 1234,604.354C1241.43,604.354 1247.15,606.814 1251.17,611.735C1251.37,612.037 1251.6,612.137 1251.85,612.037C1252.1,611.936 1252.23,611.685 1252.23,611.283L1252.23,580.251ZM1249.06,659.339C1251.07,655.623 1252.08,650.652 1252.08,644.425C1252.08,637.797 1251.02,632.625 1248.91,628.909C1246.4,624.992 1243.04,623.034 1238.82,623.034C1234.2,623.034 1230.68,624.942 1228.27,628.758C1225.86,632.775 1224.66,638.048 1224.66,644.576C1224.66,650.501 1225.71,655.422 1227.82,659.339C1230.23,663.657 1233.9,665.816 1238.82,665.816C1243.24,665.816 1246.65,663.657 1249.06,659.339Z" style="fill:white;fill-rule:nonzero;"/>
                    <path d="M1327.55,666.419C1334.17,666.118 1339.25,663.808 1342.76,659.489C1343.36,658.786 1344.02,658.435 1344.72,658.435C1345.32,658.435 1345.88,658.686 1346.38,659.188L1354.96,667.473C1355.57,668.076 1355.87,668.679 1355.87,669.281C1355.87,669.984 1355.67,670.587 1355.27,671.089C1351.95,675.206 1347.71,678.445 1342.54,680.805C1337.36,683.165 1331.71,684.345 1325.59,684.345C1316.35,684.345 1308.69,681.985 1302.62,677.265C1296.54,672.545 1292.45,666.067 1290.34,657.832C1289.13,653.413 1288.53,648.743 1288.53,643.822C1288.53,637.998 1289.08,633.077 1290.19,629.059C1292.2,621.628 1296.24,615.652 1302.31,611.133C1308.39,606.614 1315.6,604.354 1323.93,604.354C1333.77,604.354 1341.58,607.266 1347.36,613.091C1353.13,618.916 1356.87,627.101 1358.58,637.646C1358.98,640.96 1359.28,644.626 1359.48,648.643C1359.48,650.35 1358.63,651.204 1356.92,651.204L1310.67,651.204C1310.07,651.204 1309.77,651.505 1309.77,652.108C1310.07,654.217 1310.42,655.773 1310.83,656.778C1311.83,659.891 1313.81,662.276 1316.78,663.933C1319.74,665.59 1323.33,666.419 1327.55,666.419ZM1323.63,622.732C1320.42,622.732 1317.73,623.511 1315.57,625.067C1313.41,626.624 1311.93,628.808 1311.13,631.62C1310.62,633.528 1310.32,634.784 1310.22,635.386C1310.12,635.989 1310.37,636.29 1310.98,636.29L1336.59,636.29C1337.09,636.29 1337.34,636.089 1337.34,635.688C1337.34,634.583 1337.14,633.428 1336.74,632.223C1335.83,629.31 1334.28,627.001 1332.07,625.293C1329.86,623.586 1327.05,622.732 1323.63,622.732Z" style="fill:white;fill-rule:nonzero;"/>
                </g>
            </g>
        </g>
    </g>
</svg>
