<?xml version="1.0" encoding="UTF-8" standalone="no"?>
<!DOCTYPE svg PUBLIC "-//W3C//DTD SVG 1.1//EN" "http://www.w3.org/Graphics/SVG/1.1/DTD/svg11.dtd">
<svg width="100%" height="100%" viewBox="0 0 58 80" version="1.1" xmlns="http://www.w3.org/2000/svg" xmlns:xlink="http://www.w3.org/1999/xlink" xml:space="preserve" style="fill-rule:evenodd;clip-rule:evenodd;stroke-linejoin:round;stroke-miterlimit:1.41421;">
    <g transform="matrix(1,0,0,1,-21.464,-10)">
        <path d="M66.213,52.735C72.42,46.352 78.786,39.168 78.786,33.298C78.786,26.277 73.074,20.566 66.054,20.566C63.466,20.566 61.015,21.326 58.905,22.766C58.729,22.298 58.528,21.838 58.278,21.4L59.507,16.522C61.302,16.151 62.654,14.559 62.654,12.657L62.654,11C62.654,10.448 62.207,10 61.654,10L38.444,10C37.891,10 37.444,10.448 37.444,11L37.444,12.656C37.444,14.558 38.797,16.151 40.591,16.521L41.82,21.399C41.585,21.811 41.392,22.24 41.222,22.678C39.14,21.293 36.733,20.565 34.196,20.565C27.175,20.565 21.464,26.277 21.464,33.297C21.464,39.11 27.839,47.396 33.991,52.922C35.345,55.258 37.209,57.304 39.507,58.892L38.264,64.143L27.864,64.143C27.311,64.143 26.864,64.591 26.864,65.143L26.864,70.461C26.864,71.013 27.311,71.461 27.864,71.461L28.544,71.461L28.544,76.502C28.544,77.054 28.991,77.502 29.544,77.502L32.361,77.502L32.361,89C32.361,89.552 32.808,90 33.361,90C33.914,90 34.361,89.552 34.361,89L34.361,77.503L66.32,77.503L66.32,89C66.32,89.552 66.767,90 67.32,90C67.873,90 68.32,89.552 68.32,89L68.32,77.503L70.553,77.503C71.106,77.503 71.553,77.055 71.553,76.503L71.553,71.462L72.233,71.462C72.786,71.462 73.233,71.014 73.233,70.462L73.233,65.144C73.233,64.592 72.786,64.144 72.233,64.144L61.834,64.144L60.591,58.893C62.951,57.263 64.852,55.149 66.213,52.735ZM35.669,51.741C35.632,51.708 35.595,51.675 35.559,51.642C34.226,49.233 33.499,46.492 33.499,43.632C33.499,40.675 34.288,37.846 35.706,35.382L64.393,35.382C65.811,37.847 66.6,40.676 66.6,43.632C66.6,46.445 65.895,49.143 64.604,51.523C64.532,51.596 64.461,51.669 64.391,51.741L35.669,51.741L35.669,51.741ZM56.62,22.572C57.201,23.655 57.523,24.853 57.523,26.081C57.523,26.429 57.487,26.786 57.432,27.147L42.666,27.147C42.612,26.786 42.575,26.429 42.575,26.081C42.575,24.848 42.899,23.646 43.485,22.558L56.62,22.572ZM42.057,29.147L58.04,29.147C60.008,30.234 61.698,31.68 63.042,33.382L37.055,33.382C38.399,31.679 40.089,30.234 42.057,29.147ZM66.054,22.565C71.972,22.565 76.786,27.379 76.786,33.297C76.786,37.575 72.265,43.303 68.117,47.83C68.431,46.471 68.6,45.065 68.6,43.632C68.6,37.004 65.091,30.931 59.393,27.607C59.479,27.092 59.523,26.581 59.523,26.081C59.523,25.667 59.495,25.255 59.441,24.848C61.344,23.356 63.628,22.565 66.054,22.565ZM41.391,14.603C40.318,14.603 39.445,13.729 39.445,12.656L39.445,12L60.654,12L60.654,12.656C60.654,13.729 59.78,14.603 58.707,14.603C58.249,14.603 57.85,14.915 57.737,15.359L56.424,20.573L43.672,20.559L42.361,15.359C42.248,14.914 41.849,14.603 41.391,14.603ZM23.464,33.298C23.464,27.38 28.278,22.566 34.196,22.566C36.566,22.566 38.799,23.325 40.676,24.751C40.613,25.191 40.575,25.634 40.575,26.082C40.575,26.582 40.619,27.093 40.705,27.607C35.007,30.931 31.498,37.003 31.498,43.633C31.498,45.223 31.702,46.778 32.086,48.273C27.384,43.3 23.464,37.365 23.464,33.298ZM36.948,53.741L63.149,53.741C61.997,55.229 60.586,56.537 58.941,57.587L41.156,57.587C39.512,56.537 38.101,55.23 36.948,53.741ZM69.554,75.503L30.544,75.503L30.544,71.462L69.554,71.462L69.554,75.503ZM71.233,69.463L28.864,69.463L28.864,66.145L71.233,66.145L71.233,69.463ZM40.318,64.145L41.397,59.587L58.7,59.587L59.779,64.145L40.318,64.145Z" style="fill-rule:nonzero;"/>
    </g>
</svg>
