<?xml version="1.0" encoding="UTF-8" standalone="no"?>
<!DOCTYPE svg PUBLIC "-//W3C//DTD SVG 1.1//EN" "http://www.w3.org/Graphics/SVG/1.1/DTD/svg11.dtd">
<svg width="100%" height="100%" viewBox="0 0 47 80" version="1.1" xmlns="http://www.w3.org/2000/svg" xmlns:xlink="http://www.w3.org/1999/xlink" xml:space="preserve" style="fill-rule:evenodd;clip-rule:evenodd;stroke-linejoin:round;stroke-miterlimit:1.41421;">
    <g transform="matrix(1,0,0,1,-26.941,-10)">
        <path d="M67.397,90C67.95,90 68.397,89.552 68.397,89L68.397,77.503L70.63,77.503C71.183,77.503 71.63,77.055 71.63,76.503L71.63,71.462L72.31,71.462C72.863,71.462 73.31,71.014 73.31,70.462L73.31,65.144C73.31,64.592 72.863,64.144 72.31,64.144L61.911,64.144L60.668,58.893C65.696,55.42 68.677,49.768 68.677,43.632C68.677,37.003 65.168,30.93 59.47,27.606C59.556,27.091 59.6,26.581 59.6,26.081C59.6,24.438 59.17,22.829 58.355,21.399L59.584,16.521C61.379,16.15 62.731,14.558 62.731,12.656L62.731,11C62.731,10.448 62.284,10 61.731,10L38.521,10C37.968,10 37.521,10.448 37.521,11L37.521,12.656C37.521,14.558 38.874,16.151 40.668,16.521L41.897,21.399C41.082,22.829 40.652,24.439 40.652,26.081C40.652,26.581 40.696,27.092 40.782,27.606C35.084,30.93 31.575,37.002 31.575,43.632C31.575,49.767 34.555,55.42 39.584,58.893L38.341,64.144L27.941,64.144C27.388,64.144 26.941,64.592 26.941,65.144L26.941,70.462C26.941,71.014 27.388,71.462 27.941,71.462L28.621,71.462L28.621,76.503C28.621,77.055 29.068,77.503 29.621,77.503L32.438,77.503L32.438,89C32.438,89.552 32.885,90 33.438,90C33.991,90 34.438,89.552 34.438,89L34.438,77.503L66.397,77.503L66.397,89C66.397,89.552 66.845,90 67.397,90ZM43.997,51.741L36.579,51.741L40.288,38.174L43.997,51.741ZM41.598,35.382L48.824,35.382L45.213,48.602L41.598,35.382ZM50.134,38.178L53.836,51.741L46.429,51.741L50.134,38.178ZM51.443,35.382L58.661,35.382L55.051,48.599L51.443,35.382ZM59.971,38.178L63.674,51.741L56.267,51.741L59.971,38.178ZM65.323,50.188L61.28,35.382L64.469,35.382C65.887,37.846 66.676,40.676 66.676,43.632C66.677,45.932 66.2,48.152 65.323,50.188ZM42.743,27.147C42.689,26.786 42.652,26.429 42.652,26.081C42.652,24.848 42.976,23.646 43.562,22.558L56.696,22.572C57.277,23.655 57.599,24.853 57.599,26.081C57.599,26.429 57.563,26.786 57.508,27.147L42.743,27.147ZM41.469,14.603C40.396,14.603 39.522,13.729 39.522,12.656L39.522,12L60.73,12L60.73,12.656C60.73,13.729 59.856,14.603 58.783,14.603C58.325,14.603 57.926,14.915 57.813,15.359L56.5,20.572L43.748,20.558L42.438,15.358C42.326,14.914 41.927,14.603 41.469,14.603ZM42.134,29.147L58.117,29.147C60.085,30.234 61.775,31.679 63.119,33.382L37.132,33.382C38.477,31.679 40.167,30.234 42.134,29.147ZM35.782,35.382L38.977,35.382L34.93,50.189C34.052,48.153 33.576,45.933 33.576,43.633C33.575,40.675 34.364,37.846 35.782,35.382ZM37.025,53.741L63.226,53.741C62.074,55.229 60.663,56.537 59.018,57.587L41.233,57.587C39.589,56.537 38.178,55.23 37.025,53.741ZM41.475,59.587L58.778,59.587L59.857,64.145L40.395,64.145L41.475,59.587ZM28.941,66.145L71.31,66.145L71.31,69.463L28.941,69.463L28.941,66.145ZM30.621,71.463L69.631,71.463L69.631,75.504L30.621,75.504L30.621,71.463L30.621,71.463Z" style="fill-rule:nonzero;"/>
    </g>
</svg>
