<?xml version="1.0" encoding="UTF-8" standalone="no"?>
<!DOCTYPE svg PUBLIC "-//W3C//DTD SVG 1.1//EN" "http://www.w3.org/Graphics/SVG/1.1/DTD/svg11.dtd">
<svg width="100%" height="100%" viewBox="0 0 85 40" version="1.1" xmlns="http://www.w3.org/2000/svg" xmlns:xlink="http://www.w3.org/1999/xlink" xml:space="preserve" style="fill-rule:evenodd;clip-rule:evenodd;stroke-linejoin:round;stroke-miterlimit:1.41421;">
    <g transform="matrix(1,0,0,1,-7.3125,-34.375)">
        <path d="M33.563,34.375C33.159,34.375 32.813,34.69 32.813,35.094C32.813,35.497 33.159,35.844 33.563,35.844C33.966,35.844 34.281,35.497 34.281,35.094C34.281,34.69 33.966,34.375 33.563,34.375ZM35.688,34.375C35.284,34.375 34.969,34.69 34.969,35.094C34.969,35.497 35.284,35.844 35.688,35.844C36.091,35.844 36.406,35.497 36.406,35.094C36.406,34.69 36.091,34.375 35.688,34.375ZM37.813,34.375C37.409,34.375 37.094,34.69 37.094,35.094C37.094,35.497 37.409,35.844 37.813,35.844C38.216,35.844 38.531,35.497 38.531,35.094C38.531,34.69 38.216,34.375 37.813,34.375ZM39.938,34.375C39.534,34.375 39.219,34.69 39.219,35.094C39.219,35.497 39.534,35.844 39.938,35.844C40.341,35.844 40.656,35.497 40.656,35.094C40.656,34.69 40.341,34.375 39.938,34.375ZM42.063,34.375C41.659,34.375 41.344,34.69 41.344,35.094C41.344,35.497 41.659,35.844 42.063,35.844C42.466,35.844 42.781,35.497 42.781,35.094C42.781,34.69 42.466,34.375 42.063,34.375ZM44.188,34.375C43.784,34.375 43.469,34.69 43.469,35.094C43.469,35.497 43.784,35.844 44.188,35.844C44.591,35.844 44.906,35.497 44.906,35.094C44.906,34.69 44.591,34.375 44.188,34.375ZM67.563,34.375C67.159,34.375 66.844,34.69 66.844,35.094C66.844,35.497 67.159,35.844 67.563,35.844C67.966,35.844 68.313,35.497 68.313,35.094C68.313,34.69 67.966,34.375 67.563,34.375ZM69.719,34.375C69.315,34.375 68.969,34.69 68.969,35.094C68.969,35.497 69.315,35.844 69.719,35.844C70.122,35.844 70.438,35.497 70.438,35.094C70.438,34.69 70.122,34.375 69.719,34.375ZM71.844,34.375C71.44,34.375 71.094,34.69 71.094,35.094C71.094,35.497 71.44,35.844 71.844,35.844C72.247,35.844 72.563,35.497 72.563,35.094C72.563,34.69 72.247,34.375 71.844,34.375ZM73.969,34.375C73.565,34.375 73.219,34.69 73.219,35.094C73.219,35.497 73.565,35.844 73.969,35.844C74.372,35.844 74.688,35.497 74.688,35.094C74.688,34.69 74.372,34.375 73.969,34.375ZM76.094,34.375C75.69,34.375 75.344,34.69 75.344,35.094C75.344,35.497 75.69,35.844 76.094,35.844C76.497,35.844 76.813,35.497 76.813,35.094C76.813,34.69 76.497,34.375 76.094,34.375ZM78.219,34.375C77.815,34.375 77.469,34.69 77.469,35.094C77.469,35.497 77.815,35.844 78.219,35.844C78.622,35.844 78.938,35.497 78.938,35.094C78.938,34.69 78.622,34.375 78.219,34.375ZM14.438,36.5C14.034,36.5 13.688,36.815 13.688,37.219C13.688,37.622 14.034,37.938 14.438,37.938C14.841,37.938 15.156,37.622 15.156,37.219C15.156,36.815 14.841,36.5 14.438,36.5ZM16.563,36.5C16.159,36.5 15.813,36.815 15.813,37.219C15.813,37.622 16.159,37.938 16.563,37.938C16.966,37.938 17.281,37.622 17.281,37.219C17.281,36.815 16.966,36.5 16.563,36.5ZM18.688,36.5C18.284,36.5 17.938,36.815 17.938,37.219C17.938,37.622 18.284,37.938 18.688,37.938C19.091,37.938 19.406,37.622 19.406,37.219C19.406,36.815 19.091,36.5 18.688,36.5ZM20.813,36.5C20.409,36.5 20.063,36.815 20.063,37.219C20.063,37.622 20.409,37.938 20.813,37.938C21.216,37.938 21.531,37.622 21.531,37.219C21.531,36.815 21.216,36.5 20.813,36.5ZM22.938,36.5C22.534,36.5 22.188,36.815 22.188,37.219C22.188,37.622 22.534,37.938 22.938,37.938C23.341,37.938 23.656,37.622 23.656,37.219C23.656,36.815 23.341,36.5 22.938,36.5ZM25.063,36.5C24.659,36.5 24.313,36.815 24.313,37.219C24.313,37.622 24.659,37.938 25.063,37.938C25.466,37.938 25.781,37.622 25.781,37.219C25.781,36.815 25.466,36.5 25.063,36.5ZM27.188,36.5C26.784,36.5 26.438,36.815 26.438,37.219C26.438,37.622 26.784,37.938 27.188,37.938C27.591,37.938 27.906,37.622 27.906,37.219C27.906,36.815 27.591,36.5 27.188,36.5ZM29.313,36.5C28.909,36.5 28.563,36.815 28.563,37.219C28.563,37.622 28.909,37.938 29.313,37.938C29.716,37.938 30.031,37.622 30.031,37.219C30.031,36.815 29.716,36.5 29.313,36.5ZM31.438,36.5C31.034,36.5 30.688,36.815 30.688,37.219C30.688,37.622 31.034,37.938 31.438,37.938C31.841,37.938 32.156,37.622 32.156,37.219C32.156,36.815 31.841,36.5 31.438,36.5ZM33.563,36.5C33.159,36.5 32.813,36.815 32.813,37.219C32.813,37.622 33.159,37.938 33.563,37.938C33.966,37.938 34.281,37.622 34.281,37.219C34.281,36.815 33.966,36.5 33.563,36.5ZM35.688,36.5C35.284,36.5 34.969,36.815 34.969,37.219C34.969,37.622 35.284,37.938 35.688,37.938C36.091,37.938 36.406,37.622 36.406,37.219C36.406,36.815 36.091,36.5 35.688,36.5ZM37.813,36.5C37.409,36.5 37.094,36.815 37.094,37.219C37.094,37.622 37.409,37.938 37.813,37.938C38.216,37.938 38.531,37.622 38.531,37.219C38.531,36.815 38.216,36.5 37.813,36.5ZM39.938,36.5C39.534,36.5 39.219,36.815 39.219,37.219C39.219,37.622 39.534,37.938 39.938,37.938C40.341,37.938 40.656,37.622 40.656,37.219C40.656,36.815 40.341,36.5 39.938,36.5ZM42.063,36.5C41.659,36.5 41.344,36.815 41.344,37.219C41.344,37.622 41.659,37.938 42.063,37.938C42.466,37.938 42.781,37.622 42.781,37.219C42.781,36.815 42.466,36.5 42.063,36.5ZM52.688,36.5C52.284,36.5 51.969,36.815 51.969,37.219C51.969,37.622 52.284,37.938 52.688,37.938C53.091,37.938 53.438,37.622 53.438,37.219C53.438,36.815 53.091,36.5 52.688,36.5ZM54.813,36.5C54.409,36.5 54.094,36.815 54.094,37.219C54.094,37.622 54.409,37.938 54.813,37.938C55.216,37.938 55.563,37.622 55.563,37.219C55.563,36.815 55.216,36.5 54.813,36.5ZM59.063,36.5C58.659,36.5 58.344,36.815 58.344,37.219C58.344,37.622 58.659,37.938 59.063,37.938C59.466,37.938 59.813,37.622 59.813,37.219C59.813,36.815 59.466,36.5 59.063,36.5ZM61.188,36.5C60.784,36.5 60.469,36.815 60.469,37.219C60.469,37.622 60.784,37.938 61.188,37.938C61.591,37.938 61.938,37.622 61.938,37.219C61.938,36.815 61.591,36.5 61.188,36.5ZM63.313,36.5C62.909,36.5 62.594,36.815 62.594,37.219C62.594,37.622 62.909,37.938 63.313,37.938C63.716,37.938 64.063,37.622 64.063,37.219C64.063,36.815 63.716,36.5 63.313,36.5ZM65.438,36.5C65.034,36.5 64.719,36.815 64.719,37.219C64.719,37.622 65.034,37.938 65.438,37.938C65.841,37.938 66.188,37.622 66.188,37.219C66.188,36.815 65.841,36.5 65.438,36.5ZM67.563,36.5C67.159,36.5 66.844,36.815 66.844,37.219C66.844,37.622 67.159,37.938 67.563,37.938C67.966,37.938 68.313,37.622 68.313,37.219C68.313,36.815 67.966,36.5 67.563,36.5ZM69.719,36.5C69.315,36.5 68.969,36.815 68.969,37.219C68.969,37.622 69.315,37.938 69.719,37.938C70.122,37.938 70.438,37.622 70.438,37.219C70.438,36.815 70.122,36.5 69.719,36.5ZM71.844,36.5C71.44,36.5 71.094,36.815 71.094,37.219C71.094,37.622 71.44,37.938 71.844,37.938C72.247,37.938 72.563,37.622 72.563,37.219C72.563,36.815 72.247,36.5 71.844,36.5ZM73.969,36.5C73.565,36.5 73.219,36.815 73.219,37.219C73.219,37.622 73.565,37.938 73.969,37.938C74.372,37.938 74.688,37.622 74.688,37.219C74.688,36.815 74.372,36.5 73.969,36.5ZM76.094,36.5C75.69,36.5 75.344,36.815 75.344,37.219C75.344,37.622 75.69,37.938 76.094,37.938C76.497,37.938 76.813,37.622 76.813,37.219C76.813,36.815 76.497,36.5 76.094,36.5ZM78.219,36.5C77.815,36.5 77.469,36.815 77.469,37.219C77.469,37.622 77.815,37.938 78.219,37.938C78.622,37.938 78.938,37.622 78.938,37.219C78.938,36.815 78.622,36.5 78.219,36.5ZM80.344,36.5C79.94,36.5 79.594,36.815 79.594,37.219C79.594,37.622 79.94,37.938 80.344,37.938C80.747,37.938 81.063,37.622 81.063,37.219C81.063,36.815 80.747,36.5 80.344,36.5ZM82.469,36.5C82.065,36.5 81.719,36.815 81.719,37.219C81.719,37.622 82.065,37.938 82.469,37.938C82.872,37.938 83.188,37.622 83.188,37.219C83.188,36.815 82.872,36.5 82.469,36.5ZM84.594,36.5C84.19,36.5 83.844,36.815 83.844,37.219C83.844,37.622 84.19,37.938 84.594,37.938C84.997,37.938 85.313,37.622 85.313,37.219C85.313,36.815 84.997,36.5 84.594,36.5ZM86.719,36.5C86.315,36.5 85.969,36.815 85.969,37.219C85.969,37.622 86.315,37.938 86.719,37.938C87.122,37.938 87.438,37.622 87.438,37.219C87.438,36.815 87.122,36.5 86.719,36.5ZM88.844,36.5C88.44,36.5 88.094,36.815 88.094,37.219C88.094,37.622 88.44,37.938 88.844,37.938C89.247,37.938 89.563,37.622 89.563,37.219C89.563,36.815 89.247,36.5 88.844,36.5ZM90.969,36.5C90.565,36.5 90.219,36.815 90.219,37.219C90.219,37.622 90.565,37.938 90.969,37.938C91.372,37.938 91.688,37.622 91.688,37.219C91.688,36.815 91.372,36.5 90.969,36.5ZM10.156,38.594C9.753,38.594 9.438,38.94 9.438,39.344C9.438,39.747 9.753,40.063 10.156,40.063C10.56,40.063 10.906,39.747 10.906,39.344C10.906,38.94 10.56,38.594 10.156,38.594ZM12.313,38.594C11.909,38.594 11.563,38.94 11.563,39.344C11.563,39.747 11.909,40.063 12.313,40.063C12.716,40.063 13.031,39.747 13.031,39.344C13.031,38.94 12.716,38.594 12.313,38.594ZM14.438,38.594C14.034,38.594 13.688,38.94 13.688,39.344C13.688,39.747 14.034,40.063 14.438,40.063C14.841,40.063 15.156,39.747 15.156,39.344C15.156,38.94 14.841,38.594 14.438,38.594ZM16.563,38.594C16.159,38.594 15.813,38.94 15.813,39.344C15.813,39.747 16.159,40.063 16.563,40.063C16.966,40.063 17.281,39.747 17.281,39.344C17.281,38.94 16.966,38.594 16.563,38.594ZM18.688,38.594C18.284,38.594 17.938,38.94 17.938,39.344C17.938,39.747 18.284,40.063 18.688,40.063C19.091,40.063 19.406,39.747 19.406,39.344C19.406,38.94 19.091,38.594 18.688,38.594ZM20.813,38.594C20.409,38.594 20.063,38.94 20.063,39.344C20.063,39.747 20.409,40.063 20.813,40.063C21.216,40.063 21.531,39.747 21.531,39.344C21.531,38.94 21.216,38.594 20.813,38.594ZM22.938,38.594C22.534,38.594 22.188,38.94 22.188,39.344C22.188,39.747 22.534,40.063 22.938,40.063C23.341,40.063 23.656,39.747 23.656,39.344C23.656,38.94 23.341,38.594 22.938,38.594ZM25.063,38.594C24.659,38.594 24.313,38.94 24.313,39.344C24.313,39.747 24.659,40.063 25.063,40.063C25.466,40.063 25.781,39.747 25.781,39.344C25.781,38.94 25.466,38.594 25.063,38.594ZM27.188,38.594C26.784,38.594 26.438,38.94 26.438,39.344C26.438,39.747 26.784,40.063 27.188,40.063C27.591,40.063 27.906,39.747 27.906,39.344C27.906,38.94 27.591,38.594 27.188,38.594ZM33.563,38.594C33.159,38.594 32.813,38.94 32.813,39.344C32.813,39.747 33.159,40.063 33.563,40.063C33.966,40.063 34.281,39.747 34.281,39.344C34.281,38.94 33.966,38.594 33.563,38.594ZM35.688,38.594C35.284,38.594 34.969,38.94 34.969,39.344C34.969,39.747 35.284,40.063 35.688,40.063C36.091,40.063 36.406,39.747 36.406,39.344C36.406,38.94 36.091,38.594 35.688,38.594ZM44.188,38.594C44.087,38.594 43.994,38.619 43.906,38.656C43.644,38.767 43.469,39.041 43.469,39.344C43.469,39.747 43.784,40.063 44.188,40.063C44.591,40.063 44.906,39.747 44.906,39.344C44.906,38.94 44.591,38.594 44.188,38.594ZM50.563,38.594C50.159,38.594 49.844,38.94 49.844,39.344C49.844,39.747 50.159,40.063 50.563,40.063C50.966,40.063 51.313,39.747 51.313,39.344C51.313,38.94 50.966,38.594 50.563,38.594ZM52.688,38.594C52.284,38.594 51.969,38.94 51.969,39.344C51.969,39.747 52.284,40.063 52.688,40.063C53.091,40.063 53.438,39.747 53.438,39.344C53.438,38.94 53.091,38.594 52.688,38.594ZM54.813,38.594C54.409,38.594 54.094,38.94 54.094,39.344C54.094,39.747 54.409,40.063 54.813,40.063C55.216,40.063 55.563,39.747 55.563,39.344C55.563,38.94 55.216,38.594 54.813,38.594ZM56.938,38.594C56.534,38.594 56.219,38.94 56.219,39.344C56.219,39.747 56.534,40.063 56.938,40.063C57.341,40.063 57.688,39.747 57.688,39.344C57.688,38.94 57.341,38.594 56.938,38.594ZM59.063,38.594C58.659,38.594 58.344,38.94 58.344,39.344C58.344,39.747 58.659,40.063 59.063,40.063C59.466,40.063 59.813,39.747 59.813,39.344C59.813,38.94 59.466,38.594 59.063,38.594ZM61.188,38.594C60.784,38.594 60.469,38.94 60.469,39.344C60.469,39.747 60.784,40.063 61.188,40.063C61.591,40.063 61.938,39.747 61.938,39.344C61.938,38.94 61.591,38.594 61.188,38.594ZM63.313,38.594C62.909,38.594 62.594,38.94 62.594,39.344C62.594,39.747 62.909,40.063 63.313,40.063C63.716,40.063 64.063,39.747 64.063,39.344C64.063,38.94 63.716,38.594 63.313,38.594ZM65.438,38.594C65.034,38.594 64.719,38.94 64.719,39.344C64.719,39.747 65.034,40.063 65.438,40.063C65.841,40.063 66.188,39.747 66.188,39.344C66.188,38.94 65.841,38.594 65.438,38.594ZM67.563,38.594C67.159,38.594 66.844,38.94 66.844,39.344C66.844,39.747 67.159,40.063 67.563,40.063C67.966,40.063 68.313,39.747 68.313,39.344C68.313,38.94 67.966,38.594 67.563,38.594ZM69.719,38.594C69.315,38.594 68.969,38.94 68.969,39.344C68.969,39.747 69.315,40.063 69.719,40.063C70.122,40.063 70.438,39.747 70.438,39.344C70.438,38.94 70.122,38.594 69.719,38.594ZM71.844,38.594C71.44,38.594 71.094,38.94 71.094,39.344C71.094,39.747 71.44,40.063 71.844,40.063C72.247,40.063 72.563,39.747 72.563,39.344C72.563,38.94 72.247,38.594 71.844,38.594ZM73.969,38.594C73.565,38.594 73.219,38.94 73.219,39.344C73.219,39.747 73.565,40.063 73.969,40.063C74.372,40.063 74.688,39.747 74.688,39.344C74.688,38.94 74.372,38.594 73.969,38.594ZM76.094,38.594C75.69,38.594 75.344,38.94 75.344,39.344C75.344,39.747 75.69,40.063 76.094,40.063C76.497,40.063 76.813,39.747 76.813,39.344C76.813,38.94 76.497,38.594 76.094,38.594ZM78.219,38.594C77.815,38.594 77.469,38.94 77.469,39.344C77.469,39.747 77.815,40.063 78.219,40.063C78.622,40.063 78.938,39.747 78.938,39.344C78.938,38.94 78.622,38.594 78.219,38.594ZM80.344,38.594C79.94,38.594 79.594,38.94 79.594,39.344C79.594,39.747 79.94,40.063 80.344,40.063C80.747,40.063 81.063,39.747 81.063,39.344C81.063,38.94 80.747,38.594 80.344,38.594ZM82.469,38.594C82.065,38.594 81.719,38.94 81.719,39.344C81.719,39.747 82.065,40.063 82.469,40.063C82.872,40.063 83.188,39.747 83.188,39.344C83.188,38.94 82.872,38.594 82.469,38.594ZM84.594,38.594C84.19,38.594 83.844,38.94 83.844,39.344C83.844,39.747 84.19,40.063 84.594,40.063C84.997,40.063 85.313,39.747 85.313,39.344C85.313,38.94 84.997,38.594 84.594,38.594ZM86.719,38.594C86.315,38.594 85.969,38.94 85.969,39.344C85.969,39.747 86.315,40.063 86.719,40.063C87.122,40.063 87.438,39.747 87.438,39.344C87.438,38.94 87.122,38.594 86.719,38.594ZM88.844,38.594C88.44,38.594 88.094,38.94 88.094,39.344C88.094,39.747 88.44,40.063 88.844,40.063C89.247,40.063 89.563,39.747 89.563,39.344C89.563,38.94 89.247,38.594 88.844,38.594ZM8.031,40.719C7.628,40.719 7.313,41.034 7.313,41.438C7.313,41.841 7.628,42.188 8.031,42.188C8.435,42.188 8.781,41.841 8.781,41.438C8.781,41.034 8.435,40.719 8.031,40.719ZM16.563,40.719C16.159,40.719 15.813,41.034 15.813,41.438C15.813,41.841 16.159,42.188 16.563,42.188C16.966,42.188 17.281,41.841 17.281,41.438C17.281,41.034 16.966,40.719 16.563,40.719ZM18.688,40.719C18.284,40.719 17.938,41.034 17.938,41.438C17.938,41.841 18.284,42.188 18.688,42.188C19.091,42.188 19.406,41.841 19.406,41.438C19.406,41.034 19.091,40.719 18.688,40.719ZM20.813,40.719C20.409,40.719 20.063,41.034 20.063,41.438C20.063,41.841 20.409,42.188 20.813,42.188C21.216,42.188 21.531,41.841 21.531,41.438C21.531,41.034 21.216,40.719 20.813,40.719ZM22.938,40.719C22.534,40.719 22.188,41.034 22.188,41.438C22.188,41.841 22.534,42.188 22.938,42.188C23.341,42.188 23.656,41.841 23.656,41.438C23.656,41.034 23.341,40.719 22.938,40.719ZM25.063,40.719C24.659,40.719 24.313,41.034 24.313,41.438C24.313,41.841 24.659,42.188 25.063,42.188C25.466,42.188 25.781,41.841 25.781,41.438C25.781,41.034 25.466,40.719 25.063,40.719ZM29.313,40.719C28.909,40.719 28.563,41.034 28.563,41.438C28.563,41.841 28.909,42.188 29.313,42.188C29.716,42.188 30.031,41.841 30.031,41.438C30.031,41.034 29.716,40.719 29.313,40.719ZM31.438,40.719C31.034,40.719 30.688,41.034 30.688,41.438C30.688,41.841 31.034,42.188 31.438,42.188C31.841,42.188 32.156,41.841 32.156,41.438C32.156,41.034 31.841,40.719 31.438,40.719ZM46.313,40.719C45.909,40.719 45.594,41.034 45.594,41.438C45.594,41.841 45.909,42.188 46.313,42.188C46.716,42.188 47.031,41.841 47.031,41.438C47.031,41.034 46.716,40.719 46.313,40.719ZM50.563,40.719C50.159,40.719 49.844,41.034 49.844,41.438C49.844,41.841 50.159,42.188 50.563,42.188C50.966,42.188 51.313,41.841 51.313,41.438C51.313,41.034 50.966,40.719 50.563,40.719ZM52.688,40.719C52.284,40.719 51.969,41.034 51.969,41.438C51.969,41.841 52.284,42.188 52.688,42.188C53.091,42.188 53.438,41.841 53.438,41.438C53.438,41.034 53.091,40.719 52.688,40.719ZM54.813,40.719C54.409,40.719 54.094,41.034 54.094,41.438C54.094,41.841 54.409,42.188 54.813,42.188C55.216,42.188 55.563,41.841 55.563,41.438C55.563,41.034 55.216,40.719 54.813,40.719ZM56.938,40.719C56.534,40.719 56.219,41.034 56.219,41.438C56.219,41.841 56.534,42.188 56.938,42.188C57.341,42.188 57.688,41.841 57.688,41.438C57.688,41.034 57.341,40.719 56.938,40.719ZM59.063,40.719C58.659,40.719 58.344,41.034 58.344,41.438C58.344,41.841 58.659,42.188 59.063,42.188C59.466,42.188 59.813,41.841 59.813,41.438C59.813,41.034 59.466,40.719 59.063,40.719ZM61.188,40.719C60.784,40.719 60.469,41.034 60.469,41.438C60.469,41.841 60.784,42.188 61.188,42.188C61.591,42.188 61.938,41.841 61.938,41.438C61.938,41.034 61.591,40.719 61.188,40.719ZM63.313,40.719C62.909,40.719 62.594,41.034 62.594,41.438C62.594,41.841 62.909,42.188 63.313,42.188C63.716,42.188 64.063,41.841 64.063,41.438C64.063,41.034 63.716,40.719 63.313,40.719ZM65.438,40.719C65.034,40.719 64.719,41.034 64.719,41.438C64.719,41.841 65.034,42.188 65.438,42.188C65.841,42.188 66.188,41.841 66.188,41.438C66.188,41.034 65.841,40.719 65.438,40.719ZM67.563,40.719C67.159,40.719 66.844,41.034 66.844,41.438C66.844,41.841 67.159,42.188 67.563,42.188C67.966,42.188 68.313,41.841 68.313,41.438C68.313,41.034 67.966,40.719 67.563,40.719ZM69.719,40.719C69.315,40.719 68.969,41.034 68.969,41.438C68.969,41.841 69.315,42.188 69.719,42.188C70.122,42.188 70.438,41.841 70.438,41.438C70.438,41.034 70.122,40.719 69.719,40.719ZM71.844,40.719C71.44,40.719 71.094,41.034 71.094,41.438C71.094,41.841 71.44,42.188 71.844,42.188C72.247,42.188 72.563,41.841 72.563,41.438C72.563,41.034 72.247,40.719 71.844,40.719ZM73.969,40.719C73.565,40.719 73.219,41.034 73.219,41.438C73.219,41.841 73.565,42.188 73.969,42.188C74.372,42.188 74.688,41.841 74.688,41.438C74.688,41.034 74.372,40.719 73.969,40.719ZM76.094,40.719C75.69,40.719 75.344,41.034 75.344,41.438C75.344,41.841 75.69,42.188 76.094,42.188C76.497,42.188 76.813,41.841 76.813,41.438C76.813,41.034 76.497,40.719 76.094,40.719ZM78.219,40.719C77.815,40.719 77.469,41.034 77.469,41.438C77.469,41.841 77.815,42.188 78.219,42.188C78.622,42.188 78.938,41.841 78.938,41.438C78.938,41.034 78.622,40.719 78.219,40.719ZM80.344,40.719C79.94,40.719 79.594,41.034 79.594,41.438C79.594,41.841 79.94,42.188 80.344,42.188C80.747,42.188 81.063,41.841 81.063,41.438C81.063,41.034 80.747,40.719 80.344,40.719ZM82.469,40.719C82.065,40.719 81.719,41.034 81.719,41.438C81.719,41.841 82.065,42.188 82.469,42.188C82.872,42.188 83.188,41.841 83.188,41.438C83.188,41.034 82.872,40.719 82.469,40.719ZM16.563,42.813C16.159,42.813 15.813,43.159 15.813,43.563C15.813,43.966 16.159,44.281 16.563,44.281C16.966,44.281 17.281,43.966 17.281,43.563C17.281,43.159 16.966,42.813 16.563,42.813ZM18.688,42.813C18.284,42.813 17.938,43.159 17.938,43.563C17.938,43.966 18.284,44.281 18.688,44.281C19.091,44.281 19.406,43.966 19.406,43.563C19.406,43.159 19.091,42.813 18.688,42.813ZM20.813,42.813C20.409,42.813 20.063,43.159 20.063,43.563C20.063,43.966 20.409,44.281 20.813,44.281C21.216,44.281 21.531,43.966 21.531,43.563C21.531,43.159 21.216,42.813 20.813,42.813ZM22.938,42.813C22.534,42.813 22.188,43.159 22.188,43.563C22.188,43.966 22.534,44.281 22.938,44.281C23.341,44.281 23.656,43.966 23.656,43.563C23.656,43.159 23.341,42.813 22.938,42.813ZM25.063,42.813C24.659,42.813 24.313,43.159 24.313,43.563C24.313,43.966 24.659,44.281 25.063,44.281C25.466,44.281 25.781,43.966 25.781,43.563C25.781,43.159 25.466,42.813 25.063,42.813ZM27.188,42.813C26.784,42.813 26.438,43.159 26.438,43.563C26.438,43.966 26.784,44.281 27.188,44.281C27.591,44.281 27.906,43.966 27.906,43.563C27.906,43.159 27.591,42.813 27.188,42.813ZM29.313,42.813C28.909,42.813 28.563,43.159 28.563,43.563C28.563,43.966 28.909,44.281 29.313,44.281C29.716,44.281 30.031,43.966 30.031,43.563C30.031,43.159 29.716,42.813 29.313,42.813ZM46.313,42.813C45.909,42.813 45.594,43.159 45.594,43.563C45.594,43.966 45.909,44.281 46.313,44.281C46.716,44.281 47.031,43.966 47.031,43.563C47.031,43.159 46.716,42.813 46.313,42.813ZM48.438,42.813C48.034,42.813 47.719,43.159 47.719,43.563C47.719,43.966 48.034,44.281 48.438,44.281C48.841,44.281 49.188,43.966 49.188,43.563C49.188,43.159 48.841,42.813 48.438,42.813ZM50.563,42.813C50.159,42.813 49.844,43.159 49.844,43.563C49.844,43.966 50.159,44.281 50.563,44.281C50.966,44.281 51.313,43.966 51.313,43.563C51.313,43.159 50.966,42.813 50.563,42.813ZM52.688,42.813C52.284,42.813 51.969,43.159 51.969,43.563C51.969,43.966 52.284,44.281 52.688,44.281C53.091,44.281 53.438,43.966 53.438,43.563C53.438,43.159 53.091,42.813 52.688,42.813ZM54.813,42.813C54.409,42.813 54.094,43.159 54.094,43.563C54.094,43.966 54.409,44.281 54.813,44.281C55.216,44.281 55.563,43.966 55.563,43.563C55.563,43.159 55.216,42.813 54.813,42.813ZM56.938,42.813C56.534,42.813 56.219,43.159 56.219,43.563C56.219,43.966 56.534,44.281 56.938,44.281C57.341,44.281 57.688,43.966 57.688,43.563C57.688,43.159 57.341,42.813 56.938,42.813ZM59.063,42.813C58.659,42.813 58.344,43.159 58.344,43.563C58.344,43.966 58.659,44.281 59.063,44.281C59.466,44.281 59.813,43.966 59.813,43.563C59.813,43.159 59.466,42.813 59.063,42.813ZM61.188,42.813C60.784,42.813 60.469,43.159 60.469,43.563C60.469,43.966 60.784,44.281 61.188,44.281C61.591,44.281 61.938,43.966 61.938,43.563C61.938,43.159 61.591,42.813 61.188,42.813ZM63.313,42.813C62.909,42.813 62.594,43.159 62.594,43.563C62.594,43.966 62.909,44.281 63.313,44.281C63.716,44.281 64.063,43.966 64.063,43.563C64.063,43.159 63.716,42.813 63.313,42.813ZM65.438,42.813C65.034,42.813 64.719,43.159 64.719,43.563C64.719,43.966 65.034,44.281 65.438,44.281C65.841,44.281 66.188,43.966 66.188,43.563C66.188,43.159 65.841,42.813 65.438,42.813ZM67.563,42.813C67.159,42.813 66.844,43.159 66.844,43.563C66.844,43.966 67.159,44.281 67.563,44.281C67.966,44.281 68.313,43.966 68.313,43.563C68.313,43.159 67.966,42.813 67.563,42.813ZM69.719,42.813C69.315,42.813 68.969,43.159 68.969,43.563C68.969,43.966 69.315,44.281 69.719,44.281C70.122,44.281 70.438,43.966 70.438,43.563C70.438,43.159 70.122,42.813 69.719,42.813ZM71.844,42.813C71.44,42.813 71.094,43.159 71.094,43.563C71.094,43.966 71.44,44.281 71.844,44.281C72.247,44.281 72.563,43.966 72.563,43.563C72.563,43.159 72.247,42.813 71.844,42.813ZM73.969,42.813C73.565,42.813 73.219,43.159 73.219,43.563C73.219,43.966 73.565,44.281 73.969,44.281C74.372,44.281 74.688,43.966 74.688,43.563C74.688,43.159 74.372,42.813 73.969,42.813ZM76.094,42.813C75.69,42.813 75.344,43.159 75.344,43.563C75.344,43.966 75.69,44.281 76.094,44.281C76.497,44.281 76.813,43.966 76.813,43.563C76.813,43.159 76.497,42.813 76.094,42.813ZM78.219,42.813C77.815,42.813 77.469,43.159 77.469,43.563C77.469,43.966 77.815,44.281 78.219,44.281C78.622,44.281 78.938,43.966 78.938,43.563C78.938,43.159 78.622,42.813 78.219,42.813ZM80.344,42.813C79.94,42.813 79.594,43.159 79.594,43.563C79.594,43.966 79.94,44.281 80.344,44.281C80.747,44.281 81.063,43.966 81.063,43.563C81.063,43.159 80.747,42.813 80.344,42.813ZM82.469,42.813C82.065,42.813 81.719,43.159 81.719,43.563C81.719,43.966 82.065,44.281 82.469,44.281C82.872,44.281 83.188,43.966 83.188,43.563C83.188,43.159 82.872,42.813 82.469,42.813ZM88.844,42.813C88.44,42.813 88.094,43.159 88.094,43.563C88.094,43.966 88.44,44.281 88.844,44.281C89.247,44.281 89.563,43.966 89.563,43.563C89.563,43.159 89.247,42.813 88.844,42.813ZM14.438,44.938C14.034,44.938 13.688,45.253 13.688,45.656C13.688,46.06 14.034,46.406 14.438,46.406C14.841,46.406 15.156,46.06 15.156,45.656C15.156,45.253 14.841,44.938 14.438,44.938ZM16.563,44.938C16.159,44.938 15.813,45.253 15.813,45.656C15.813,46.06 16.159,46.406 16.563,46.406C16.966,46.406 17.281,46.06 17.281,45.656C17.281,45.253 16.966,44.938 16.563,44.938ZM18.688,44.938C18.284,44.938 17.938,45.253 17.938,45.656C17.938,46.06 18.284,46.406 18.688,46.406C19.091,46.406 19.406,46.06 19.406,45.656C19.406,45.253 19.091,44.938 18.688,44.938ZM20.813,44.938C20.409,44.938 20.063,45.253 20.063,45.656C20.063,46.06 20.409,46.406 20.813,46.406C21.216,46.406 21.531,46.06 21.531,45.656C21.531,45.253 21.216,44.938 20.813,44.938ZM22.938,44.938C22.534,44.938 22.188,45.253 22.188,45.656C22.188,46.06 22.534,46.406 22.938,46.406C23.341,46.406 23.656,46.06 23.656,45.656C23.656,45.253 23.341,44.938 22.938,44.938ZM25.063,44.938C24.659,44.938 24.313,45.253 24.313,45.656C24.313,46.06 24.659,46.406 25.063,46.406C25.466,46.406 25.781,46.06 25.781,45.656C25.781,45.253 25.466,44.938 25.063,44.938ZM27.188,44.938C26.784,44.938 26.438,45.253 26.438,45.656C26.438,46.06 26.784,46.406 27.188,46.406C27.591,46.406 27.906,46.06 27.906,45.656C27.906,45.253 27.591,44.938 27.188,44.938ZM46.313,44.938C45.909,44.938 45.594,45.253 45.594,45.656C45.594,46.06 45.909,46.406 46.313,46.406C46.716,46.406 47.031,46.06 47.031,45.656C47.031,45.253 46.716,44.938 46.313,44.938ZM50.563,44.938C50.159,44.938 49.844,45.253 49.844,45.656C49.844,46.06 50.159,46.406 50.563,46.406C50.966,46.406 51.313,46.06 51.313,45.656C51.313,45.253 50.966,44.938 50.563,44.938ZM52.688,44.938C52.284,44.938 51.969,45.253 51.969,45.656C51.969,46.06 52.284,46.406 52.688,46.406C53.091,46.406 53.438,46.06 53.438,45.656C53.438,45.253 53.091,44.938 52.688,44.938ZM54.813,44.938C54.409,44.938 54.094,45.253 54.094,45.656C54.094,46.06 54.409,46.406 54.813,46.406C55.216,46.406 55.563,46.06 55.563,45.656C55.563,45.253 55.216,44.938 54.813,44.938ZM56.938,44.938C56.534,44.938 56.219,45.253 56.219,45.656C56.219,46.06 56.534,46.406 56.938,46.406C57.341,46.406 57.688,46.06 57.688,45.656C57.688,45.253 57.341,44.938 56.938,44.938ZM59.063,44.938C58.659,44.938 58.344,45.253 58.344,45.656C58.344,46.06 58.659,46.406 59.063,46.406C59.466,46.406 59.813,46.06 59.813,45.656C59.813,45.253 59.466,44.938 59.063,44.938ZM61.188,44.938C60.784,44.938 60.469,45.253 60.469,45.656C60.469,46.06 60.784,46.406 61.188,46.406C61.591,46.406 61.938,46.06 61.938,45.656C61.938,45.253 61.591,44.938 61.188,44.938ZM63.313,44.938C62.909,44.938 62.594,45.253 62.594,45.656C62.594,46.06 62.909,46.406 63.313,46.406C63.716,46.406 64.063,46.06 64.063,45.656C64.063,45.253 63.716,44.938 63.313,44.938ZM65.438,44.938C65.034,44.938 64.719,45.253 64.719,45.656C64.719,46.06 65.034,46.406 65.438,46.406C65.841,46.406 66.188,46.06 66.188,45.656C66.188,45.253 65.841,44.938 65.438,44.938ZM67.563,44.938C67.159,44.938 66.844,45.253 66.844,45.656C66.844,46.06 67.159,46.406 67.563,46.406C67.966,46.406 68.313,46.06 68.313,45.656C68.313,45.253 67.966,44.938 67.563,44.938ZM69.719,44.938C69.315,44.938 68.969,45.253 68.969,45.656C68.969,46.06 69.315,46.406 69.719,46.406C70.122,46.406 70.438,46.06 70.438,45.656C70.438,45.253 70.122,44.938 69.719,44.938ZM71.844,44.938C71.44,44.938 71.094,45.253 71.094,45.656C71.094,46.06 71.44,46.406 71.844,46.406C72.247,46.406 72.563,46.06 72.563,45.656C72.563,45.253 72.247,44.938 71.844,44.938ZM73.969,44.938C73.565,44.938 73.219,45.253 73.219,45.656C73.219,46.06 73.565,46.406 73.969,46.406C74.372,46.406 74.688,46.06 74.688,45.656C74.688,45.253 74.372,44.938 73.969,44.938ZM76.094,44.938C75.69,44.938 75.344,45.253 75.344,45.656C75.344,46.06 75.69,46.406 76.094,46.406C76.497,46.406 76.813,46.06 76.813,45.656C76.813,45.253 76.497,44.938 76.094,44.938ZM78.219,44.938C77.815,44.938 77.469,45.253 77.469,45.656C77.469,46.06 77.815,46.406 78.219,46.406C78.622,46.406 78.938,46.06 78.938,45.656C78.938,45.253 78.622,44.938 78.219,44.938ZM80.344,44.938C79.94,44.938 79.594,45.253 79.594,45.656C79.594,46.06 79.94,46.406 80.344,46.406C80.747,46.406 81.063,46.06 81.063,45.656C81.063,45.253 80.747,44.938 80.344,44.938ZM82.469,44.938C82.065,44.938 81.719,45.253 81.719,45.656C81.719,46.06 82.065,46.406 82.469,46.406C82.872,46.406 83.188,46.06 83.188,45.656C83.188,45.253 82.872,44.938 82.469,44.938ZM14.438,47.063C14.034,47.063 13.688,47.378 13.688,47.781C13.688,48.185 14.034,48.5 14.438,48.5C14.841,48.5 15.156,48.185 15.156,47.781C15.156,47.378 14.841,47.063 14.438,47.063ZM16.563,47.063C16.159,47.063 15.813,47.378 15.813,47.781C15.813,48.185 16.159,48.5 16.563,48.5C16.966,48.5 17.281,48.185 17.281,47.781C17.281,47.378 16.966,47.063 16.563,47.063ZM18.688,47.063C18.284,47.063 17.938,47.378 17.938,47.781C17.938,48.185 18.284,48.5 18.688,48.5C19.091,48.5 19.406,48.185 19.406,47.781C19.406,47.378 19.091,47.063 18.688,47.063ZM20.813,47.063C20.409,47.063 20.063,47.378 20.063,47.781C20.063,48.185 20.409,48.5 20.813,48.5C21.216,48.5 21.531,48.185 21.531,47.781C21.531,47.378 21.216,47.063 20.813,47.063ZM22.938,47.063C22.534,47.063 22.188,47.378 22.188,47.781C22.188,48.185 22.534,48.5 22.938,48.5C23.341,48.5 23.656,48.185 23.656,47.781C23.656,47.378 23.341,47.063 22.938,47.063ZM25.063,47.063C24.659,47.063 24.313,47.378 24.313,47.781C24.313,48.185 24.659,48.5 25.063,48.5C25.466,48.5 25.781,48.185 25.781,47.781C25.781,47.378 25.466,47.063 25.063,47.063ZM46.313,47.063C45.909,47.063 45.594,47.378 45.594,47.781C45.594,48.185 45.909,48.5 46.313,48.5C46.716,48.5 47.031,48.185 47.031,47.781C47.031,47.378 46.716,47.063 46.313,47.063ZM48.438,47.063C48.034,47.063 47.719,47.378 47.719,47.781C47.719,48.185 48.034,48.5 48.438,48.5C48.841,48.5 49.188,48.185 49.188,47.781C49.188,47.378 48.841,47.063 48.438,47.063ZM56.938,47.063C56.534,47.063 56.219,47.378 56.219,47.781C56.219,48.185 56.534,48.5 56.938,48.5C57.341,48.5 57.688,48.185 57.688,47.781C57.688,47.378 57.341,47.063 56.938,47.063ZM59.063,47.063C58.659,47.063 58.344,47.378 58.344,47.781C58.344,48.185 58.659,48.5 59.063,48.5C59.466,48.5 59.813,48.185 59.813,47.781C59.813,47.378 59.466,47.063 59.063,47.063ZM61.188,47.063C60.784,47.063 60.469,47.378 60.469,47.781C60.469,48.185 60.784,48.5 61.188,48.5C61.591,48.5 61.938,48.185 61.938,47.781C61.938,47.378 61.591,47.063 61.188,47.063ZM63.313,47.063C62.909,47.063 62.594,47.378 62.594,47.781C62.594,48.185 62.909,48.5 63.313,48.5C63.716,48.5 64.063,48.185 64.063,47.781C64.063,47.378 63.716,47.063 63.313,47.063ZM65.438,47.063C65.034,47.063 64.719,47.378 64.719,47.781C64.719,48.185 65.034,48.5 65.438,48.5C65.841,48.5 66.188,48.185 66.188,47.781C66.188,47.378 65.841,47.063 65.438,47.063ZM67.563,47.063C67.159,47.063 66.844,47.378 66.844,47.781C66.844,48.185 67.159,48.5 67.563,48.5C67.966,48.5 68.313,48.185 68.313,47.781C68.313,47.378 67.966,47.063 67.563,47.063ZM69.719,47.063C69.315,47.063 68.969,47.378 68.969,47.781C68.969,48.185 69.315,48.5 69.719,48.5C70.122,48.5 70.438,48.185 70.438,47.781C70.438,47.378 70.122,47.063 69.719,47.063ZM71.844,47.063C71.44,47.063 71.094,47.378 71.094,47.781C71.094,48.185 71.44,48.5 71.844,48.5C72.247,48.5 72.563,48.185 72.563,47.781C72.563,47.378 72.247,47.063 71.844,47.063ZM73.969,47.063C73.565,47.063 73.219,47.378 73.219,47.781C73.219,48.185 73.565,48.5 73.969,48.5C74.372,48.5 74.688,48.185 74.688,47.781C74.688,47.378 74.372,47.063 73.969,47.063ZM76.094,47.063C75.69,47.063 75.344,47.378 75.344,47.781C75.344,48.185 75.69,48.5 76.094,48.5C76.497,48.5 76.813,48.185 76.813,47.781C76.813,47.378 76.497,47.063 76.094,47.063ZM78.219,47.063C77.815,47.063 77.469,47.378 77.469,47.781C77.469,48.185 77.815,48.5 78.219,48.5C78.622,48.5 78.938,48.185 78.938,47.781C78.938,47.378 78.622,47.063 78.219,47.063ZM16.563,49.156C16.159,49.156 15.813,49.503 15.813,49.906C15.813,50.31 16.159,50.625 16.563,50.625C16.966,50.625 17.281,50.31 17.281,49.906C17.281,49.503 16.966,49.156 16.563,49.156ZM18.688,49.156C18.284,49.156 17.938,49.503 17.938,49.906C17.938,50.31 18.284,50.625 18.688,50.625C19.091,50.625 19.406,50.31 19.406,49.906C19.406,49.503 19.091,49.156 18.688,49.156ZM25.063,49.156C24.659,49.156 24.313,49.503 24.313,49.906C24.313,50.31 24.659,50.625 25.063,50.625C25.466,50.625 25.781,50.31 25.781,49.906C25.781,49.503 25.466,49.156 25.063,49.156ZM44.188,49.156C43.784,49.156 43.469,49.503 43.469,49.906C43.469,50.31 43.784,50.625 44.188,50.625C44.591,50.625 44.906,50.31 44.906,49.906C44.906,49.503 44.591,49.156 44.188,49.156ZM46.313,49.156C45.909,49.156 45.594,49.503 45.594,49.906C45.594,50.31 45.909,50.625 46.313,50.625C46.716,50.625 47.031,50.31 47.031,49.906C47.031,49.503 46.716,49.156 46.313,49.156ZM48.438,49.156C48.034,49.156 47.719,49.503 47.719,49.906C47.719,50.31 48.034,50.625 48.438,50.625C48.841,50.625 49.188,50.31 49.188,49.906C49.188,49.503 48.841,49.156 48.438,49.156ZM50.563,49.156C50.159,49.156 49.844,49.503 49.844,49.906C49.844,50.31 50.159,50.625 50.563,50.625C50.966,50.625 51.313,50.31 51.313,49.906C51.313,49.503 50.966,49.156 50.563,49.156ZM52.688,49.156C52.284,49.156 51.969,49.503 51.969,49.906C51.969,50.31 52.284,50.625 52.688,50.625C53.091,50.625 53.438,50.31 53.438,49.906C53.438,49.503 53.091,49.156 52.688,49.156ZM54.813,49.156C54.409,49.156 54.094,49.503 54.094,49.906C54.094,50.31 54.409,50.625 54.813,50.625C55.216,50.625 55.563,50.31 55.563,49.906C55.563,49.503 55.216,49.156 54.813,49.156ZM56.938,49.156C56.534,49.156 56.219,49.503 56.219,49.906C56.219,50.31 56.534,50.625 56.938,50.625C57.341,50.625 57.688,50.31 57.688,49.906C57.688,49.503 57.341,49.156 56.938,49.156ZM59.063,49.156C58.659,49.156 58.344,49.503 58.344,49.906C58.344,50.31 58.659,50.625 59.063,50.625C59.466,50.625 59.813,50.31 59.813,49.906C59.813,49.503 59.466,49.156 59.063,49.156ZM61.188,49.156C60.784,49.156 60.469,49.503 60.469,49.906C60.469,50.31 60.784,50.625 61.188,50.625C61.591,50.625 61.938,50.31 61.938,49.906C61.938,49.503 61.591,49.156 61.188,49.156ZM63.313,49.156C62.909,49.156 62.594,49.503 62.594,49.906C62.594,50.31 62.909,50.625 63.313,50.625C63.716,50.625 64.063,50.31 64.063,49.906C64.063,49.503 63.716,49.156 63.313,49.156ZM65.438,49.156C65.034,49.156 64.719,49.503 64.719,49.906C64.719,50.31 65.034,50.625 65.438,50.625C65.841,50.625 66.188,50.31 66.188,49.906C66.188,49.503 65.841,49.156 65.438,49.156ZM67.563,49.156C67.159,49.156 66.844,49.503 66.844,49.906C66.844,50.31 67.159,50.625 67.563,50.625C67.966,50.625 68.313,50.31 68.313,49.906C68.313,49.503 67.966,49.156 67.563,49.156ZM69.719,49.156C69.315,49.156 68.969,49.503 68.969,49.906C68.969,50.31 69.315,50.625 69.719,50.625C70.122,50.625 70.438,50.31 70.438,49.906C70.438,49.503 70.122,49.156 69.719,49.156ZM71.844,49.156C71.44,49.156 71.094,49.503 71.094,49.906C71.094,50.31 71.44,50.625 71.844,50.625C72.247,50.625 72.563,50.31 72.563,49.906C72.563,49.503 72.247,49.156 71.844,49.156ZM73.969,49.156C73.565,49.156 73.219,49.503 73.219,49.906C73.219,50.31 73.565,50.625 73.969,50.625C74.372,50.625 74.688,50.31 74.688,49.906C74.688,49.503 74.372,49.156 73.969,49.156ZM76.094,49.156C75.69,49.156 75.344,49.503 75.344,49.906C75.344,50.31 75.69,50.625 76.094,50.625C76.497,50.625 76.813,50.31 76.813,49.906C76.813,49.503 76.497,49.156 76.094,49.156ZM78.219,49.156C77.815,49.156 77.469,49.503 77.469,49.906C77.469,50.31 77.815,50.625 78.219,50.625C78.622,50.625 78.938,50.31 78.938,49.906C78.938,49.503 78.622,49.156 78.219,49.156ZM16.563,51.281C16.159,51.281 15.813,51.596 15.813,52C15.813,52.404 16.159,52.75 16.563,52.75C16.966,52.75 17.281,52.404 17.281,52C17.281,51.596 16.966,51.281 16.563,51.281ZM18.688,51.281C18.284,51.281 17.938,51.596 17.938,52C17.938,52.404 18.284,52.75 18.688,52.75C19.091,52.75 19.406,52.404 19.406,52C19.406,51.596 19.091,51.281 18.688,51.281ZM42.063,51.281C41.659,51.281 41.344,51.596 41.344,52C41.344,52.404 41.659,52.75 42.063,52.75C42.466,52.75 42.781,52.404 42.781,52C42.781,51.596 42.466,51.281 42.063,51.281ZM44.188,51.281C43.784,51.281 43.469,51.596 43.469,52C43.469,52.404 43.784,52.75 44.188,52.75C44.591,52.75 44.906,52.404 44.906,52C44.906,51.596 44.591,51.281 44.188,51.281ZM46.313,51.281C45.909,51.281 45.594,51.596 45.594,52C45.594,52.404 45.909,52.75 46.313,52.75C46.716,52.75 47.031,52.404 47.031,52C47.031,51.596 46.716,51.281 46.313,51.281ZM48.438,51.281C48.034,51.281 47.719,51.596 47.719,52C47.719,52.404 48.034,52.75 48.438,52.75C48.841,52.75 49.188,52.404 49.188,52C49.188,51.596 48.841,51.281 48.438,51.281ZM50.563,51.281C50.159,51.281 49.844,51.596 49.844,52C49.844,52.404 50.159,52.75 50.563,52.75C50.966,52.75 51.313,52.404 51.313,52C51.313,51.596 50.966,51.281 50.563,51.281ZM52.688,51.281C52.284,51.281 51.969,51.596 51.969,52C51.969,52.404 52.284,52.75 52.688,52.75C53.091,52.75 53.438,52.404 53.438,52C53.438,51.596 53.091,51.281 52.688,51.281ZM54.813,51.281C54.409,51.281 54.094,51.596 54.094,52C54.094,52.404 54.409,52.75 54.813,52.75C55.216,52.75 55.563,52.404 55.563,52C55.563,51.596 55.216,51.281 54.813,51.281ZM59.063,51.281C58.659,51.281 58.344,51.596 58.344,52C58.344,52.404 58.659,52.75 59.063,52.75C59.466,52.75 59.813,52.404 59.813,52C59.813,51.596 59.466,51.281 59.063,51.281ZM61.188,51.281C60.784,51.281 60.469,51.596 60.469,52C60.469,52.404 60.784,52.75 61.188,52.75C61.591,52.75 61.938,52.404 61.938,52C61.938,51.596 61.591,51.281 61.188,51.281ZM63.313,51.281C62.909,51.281 62.594,51.596 62.594,52C62.594,52.404 62.909,52.75 63.313,52.75C63.716,52.75 64.063,52.404 64.063,52C64.063,51.596 63.716,51.281 63.313,51.281ZM67.563,51.281C67.159,51.281 66.844,51.596 66.844,52C66.844,52.404 67.159,52.75 67.563,52.75C67.966,52.75 68.313,52.404 68.313,52C68.313,51.596 67.966,51.281 67.563,51.281ZM69.719,51.281C69.315,51.281 68.969,51.596 68.969,52C68.969,52.404 69.315,52.75 69.719,52.75C70.122,52.75 70.438,52.404 70.438,52C70.438,51.596 70.122,51.281 69.719,51.281ZM71.844,51.281C71.44,51.281 71.094,51.596 71.094,52C71.094,52.404 71.44,52.75 71.844,52.75C72.247,52.75 72.563,52.404 72.563,52C72.563,51.596 72.247,51.281 71.844,51.281ZM73.969,51.281C73.565,51.281 73.219,51.596 73.219,52C73.219,52.404 73.565,52.75 73.969,52.75C74.372,52.75 74.688,52.404 74.688,52C74.688,51.596 74.372,51.281 73.969,51.281ZM76.094,51.281C75.69,51.281 75.344,51.596 75.344,52C75.344,52.404 75.69,52.75 76.094,52.75C76.497,52.75 76.813,52.404 76.813,52C76.813,51.596 76.497,51.281 76.094,51.281ZM78.219,51.281C77.815,51.281 77.469,51.596 77.469,52C77.469,52.404 77.815,52.75 78.219,52.75C78.622,52.75 78.938,52.404 78.938,52C78.938,51.596 78.622,51.281 78.219,51.281ZM20.813,53.375C20.409,53.375 20.063,53.721 20.063,54.125C20.063,54.529 20.409,54.844 20.813,54.844C21.216,54.844 21.531,54.529 21.531,54.125C21.531,53.721 21.216,53.375 20.813,53.375ZM42.063,53.375C41.659,53.375 41.344,53.721 41.344,54.125C41.344,54.529 41.659,54.844 42.063,54.844C42.466,54.844 42.781,54.529 42.781,54.125C42.781,53.721 42.466,53.375 42.063,53.375ZM44.188,53.375C43.784,53.375 43.469,53.721 43.469,54.125C43.469,54.529 43.784,54.844 44.188,54.844C44.591,54.844 44.906,54.529 44.906,54.125C44.906,53.721 44.591,53.375 44.188,53.375ZM46.313,53.375C45.909,53.375 45.594,53.721 45.594,54.125C45.594,54.529 45.909,54.844 46.313,54.844C46.716,54.844 47.031,54.529 47.031,54.125C47.031,53.721 46.716,53.375 46.313,53.375ZM48.438,53.375C48.034,53.375 47.719,53.721 47.719,54.125C47.719,54.529 48.034,54.844 48.438,54.844C48.841,54.844 49.188,54.529 49.188,54.125C49.188,53.721 48.841,53.375 48.438,53.375ZM50.563,53.375C50.159,53.375 49.844,53.721 49.844,54.125C49.844,54.529 50.159,54.844 50.563,54.844C50.966,54.844 51.313,54.529 51.313,54.125C51.313,53.721 50.966,53.375 50.563,53.375ZM52.688,53.375C52.284,53.375 51.969,53.721 51.969,54.125C51.969,54.529 52.284,54.844 52.688,54.844C53.091,54.844 53.438,54.529 53.438,54.125C53.438,53.721 53.091,53.375 52.688,53.375ZM54.813,53.375C54.409,53.375 54.094,53.721 54.094,54.125C54.094,54.529 54.409,54.844 54.813,54.844C55.216,54.844 55.563,54.529 55.563,54.125C55.563,53.721 55.216,53.375 54.813,53.375ZM56.938,53.375C56.534,53.375 56.219,53.721 56.219,54.125C56.219,54.529 56.534,54.844 56.938,54.844C57.341,54.844 57.688,54.529 57.688,54.125C57.688,53.721 57.341,53.375 56.938,53.375ZM61.188,53.375C60.784,53.375 60.469,53.721 60.469,54.125C60.469,54.529 60.784,54.844 61.188,54.844C61.591,54.844 61.938,54.529 61.938,54.125C61.938,53.721 61.591,53.375 61.188,53.375ZM67.563,53.375C67.159,53.375 66.844,53.721 66.844,54.125C66.844,54.529 67.159,54.844 67.563,54.844C67.966,54.844 68.313,54.529 68.313,54.125C68.313,53.721 67.966,53.375 67.563,53.375ZM69.719,53.375C69.315,53.375 68.969,53.721 68.969,54.125C68.969,54.529 69.315,54.844 69.719,54.844C70.122,54.844 70.438,54.529 70.438,54.125C70.438,53.721 70.122,53.375 69.719,53.375ZM71.844,53.375C71.44,53.375 71.094,53.721 71.094,54.125C71.094,54.529 71.44,54.844 71.844,54.844C72.247,54.844 72.563,54.529 72.563,54.125C72.563,53.721 72.247,53.375 71.844,53.375ZM76.094,53.375C75.69,53.375 75.344,53.721 75.344,54.125C75.344,54.529 75.69,54.844 76.094,54.844C76.497,54.844 76.813,54.529 76.813,54.125C76.813,53.721 76.497,53.375 76.094,53.375ZM78.219,53.375C77.815,53.375 77.469,53.721 77.469,54.125C77.469,54.529 77.815,54.844 78.219,54.844C78.622,54.844 78.938,54.529 78.938,54.125C78.938,53.721 78.622,53.375 78.219,53.375ZM22.938,55.5C22.534,55.5 22.188,55.815 22.188,56.219C22.188,56.622 22.534,56.969 22.938,56.969C23.341,56.969 23.656,56.622 23.656,56.219C23.656,55.815 23.341,55.5 22.938,55.5ZM25.063,55.5C24.659,55.5 24.313,55.815 24.313,56.219C24.313,56.622 24.659,56.969 25.063,56.969C25.466,56.969 25.781,56.622 25.781,56.219C25.781,55.815 25.466,55.5 25.063,55.5ZM27.188,55.5C26.784,55.5 26.438,55.815 26.438,56.219C26.438,56.622 26.784,56.969 27.188,56.969C27.591,56.969 27.906,56.622 27.906,56.219C27.906,55.815 27.591,55.5 27.188,55.5ZM29.313,55.5C28.909,55.5 28.563,55.815 28.563,56.219C28.563,56.622 28.909,56.969 29.313,56.969C29.716,56.969 30.031,56.622 30.031,56.219C30.031,55.815 29.716,55.5 29.313,55.5ZM44.188,55.5C43.784,55.5 43.469,55.815 43.469,56.219C43.469,56.622 43.784,56.969 44.188,56.969C44.591,56.969 44.906,56.622 44.906,56.219C44.906,55.815 44.591,55.5 44.188,55.5ZM46.313,55.5C45.909,55.5 45.594,55.815 45.594,56.219C45.594,56.622 45.909,56.969 46.313,56.969C46.716,56.969 47.031,56.622 47.031,56.219C47.031,55.815 46.716,55.5 46.313,55.5ZM48.438,55.5C48.034,55.5 47.719,55.815 47.719,56.219C47.719,56.622 48.034,56.969 48.438,56.969C48.841,56.969 49.188,56.622 49.188,56.219C49.188,55.815 48.841,55.5 48.438,55.5ZM50.563,55.5C50.159,55.5 49.844,55.815 49.844,56.219C49.844,56.622 50.159,56.969 50.563,56.969C50.966,56.969 51.313,56.622 51.313,56.219C51.313,55.815 50.966,55.5 50.563,55.5ZM52.688,55.5C52.284,55.5 51.969,55.815 51.969,56.219C51.969,56.622 52.284,56.969 52.688,56.969C53.091,56.969 53.438,56.622 53.438,56.219C53.438,55.815 53.091,55.5 52.688,55.5ZM54.813,55.5C54.409,55.5 54.094,55.815 54.094,56.219C54.094,56.622 54.409,56.969 54.813,56.969C55.216,56.969 55.563,56.622 55.563,56.219C55.563,55.815 55.216,55.5 54.813,55.5ZM56.938,55.5C56.534,55.5 56.219,55.815 56.219,56.219C56.219,56.622 56.534,56.969 56.938,56.969C57.341,56.969 57.688,56.622 57.688,56.219C57.688,55.815 57.341,55.5 56.938,55.5ZM59.063,55.5C58.659,55.5 58.344,55.815 58.344,56.219C58.344,56.622 58.659,56.969 59.063,56.969C59.466,56.969 59.813,56.622 59.813,56.219C59.813,55.815 59.466,55.5 59.063,55.5ZM69.719,55.5C69.315,55.5 68.969,55.815 68.969,56.219C68.969,56.622 69.315,56.969 69.719,56.969C70.122,56.969 70.438,56.622 70.438,56.219C70.438,55.815 70.122,55.5 69.719,55.5ZM76.094,55.5C75.69,55.5 75.344,55.815 75.344,56.219C75.344,56.622 75.69,56.969 76.094,56.969C76.497,56.969 76.813,56.622 76.813,56.219C76.813,55.815 76.497,55.5 76.094,55.5ZM25.063,57.625C24.659,57.625 24.313,57.94 24.313,58.344C24.313,58.747 24.659,59.063 25.063,59.063C25.466,59.063 25.781,58.747 25.781,58.344C25.781,57.94 25.466,57.625 25.063,57.625ZM27.188,57.625C26.784,57.625 26.438,57.94 26.438,58.344C26.438,58.747 26.784,59.063 27.188,59.063C27.591,59.063 27.906,58.747 27.906,58.344C27.906,57.94 27.591,57.625 27.188,57.625ZM29.313,57.625C28.909,57.625 28.563,57.94 28.563,58.344C28.563,58.747 28.909,59.063 29.313,59.063C29.716,59.063 30.031,58.747 30.031,58.344C30.031,57.94 29.716,57.625 29.313,57.625ZM31.438,57.625C31.034,57.625 30.688,57.94 30.688,58.344C30.688,58.747 31.034,59.063 31.438,59.063C31.841,59.063 32.156,58.747 32.156,58.344C32.156,57.94 31.841,57.625 31.438,57.625ZM50.563,57.625C50.159,57.625 49.844,57.94 49.844,58.344C49.844,58.747 50.159,59.063 50.563,59.063C50.966,59.063 51.313,58.747 51.313,58.344C51.313,57.94 50.966,57.625 50.563,57.625ZM52.688,57.625C52.284,57.625 51.969,57.94 51.969,58.344C51.969,58.747 52.284,59.063 52.688,59.063C53.091,59.063 53.438,58.747 53.438,58.344C53.438,57.94 53.091,57.625 52.688,57.625ZM54.813,57.625C54.409,57.625 54.094,57.94 54.094,58.344C54.094,58.747 54.409,59.063 54.813,59.063C55.216,59.063 55.563,58.747 55.563,58.344C55.563,57.94 55.216,57.625 54.813,57.625ZM56.938,57.625C56.534,57.625 56.219,57.94 56.219,58.344C56.219,58.747 56.534,59.063 56.938,59.063C57.341,59.063 57.688,58.747 57.688,58.344C57.688,57.94 57.341,57.625 56.938,57.625ZM59.063,57.625C58.659,57.625 58.344,57.94 58.344,58.344C58.344,58.747 58.659,59.063 59.063,59.063C59.466,59.063 59.813,58.747 59.813,58.344C59.813,57.94 59.466,57.625 59.063,57.625ZM76.094,57.625C75.69,57.625 75.344,57.94 75.344,58.344C75.344,58.747 75.69,59.063 76.094,59.063C76.497,59.063 76.813,58.747 76.813,58.344C76.813,57.94 76.497,57.625 76.094,57.625ZM22.938,59.719C22.534,59.719 22.188,60.065 22.188,60.469C22.188,60.872 22.534,61.188 22.938,61.188C23.341,61.188 23.656,60.872 23.656,60.469C23.656,60.065 23.341,59.719 22.938,59.719ZM25.063,59.719C24.659,59.719 24.313,60.065 24.313,60.469C24.313,60.872 24.659,61.188 25.063,61.188C25.466,61.188 25.781,60.872 25.781,60.469C25.781,60.065 25.466,59.719 25.063,59.719ZM27.188,59.719C26.784,59.719 26.438,60.065 26.438,60.469C26.438,60.872 26.784,61.188 27.188,61.188C27.591,61.188 27.906,60.872 27.906,60.469C27.906,60.065 27.591,59.719 27.188,59.719ZM29.313,59.719C28.909,59.719 28.563,60.065 28.563,60.469C28.563,60.872 28.909,61.188 29.313,61.188C29.716,61.188 30.031,60.872 30.031,60.469C30.031,60.065 29.716,59.719 29.313,59.719ZM31.438,59.719C31.034,59.719 30.688,60.065 30.688,60.469C30.688,60.872 31.034,61.188 31.438,61.188C31.841,61.188 32.156,60.872 32.156,60.469C32.156,60.065 31.841,59.719 31.438,59.719ZM33.563,59.719C33.159,59.719 32.813,60.065 32.813,60.469C32.813,60.872 33.159,61.188 33.563,61.188C33.966,61.188 34.281,60.872 34.281,60.469C34.281,60.065 33.966,59.719 33.563,59.719ZM35.688,59.719C35.284,59.719 34.969,60.065 34.969,60.469C34.969,60.872 35.284,61.188 35.688,61.188C36.091,61.188 36.406,60.872 36.406,60.469C36.406,60.065 36.091,59.719 35.688,59.719ZM50.563,59.719C50.159,59.719 49.844,60.065 49.844,60.469C49.844,60.872 50.159,61.188 50.563,61.188C50.966,61.188 51.313,60.872 51.313,60.469C51.313,60.065 50.966,59.719 50.563,59.719ZM52.688,59.719C52.284,59.719 51.969,60.065 51.969,60.469C51.969,60.872 52.284,61.188 52.688,61.188C53.091,61.188 53.438,60.872 53.438,60.469C53.438,60.065 53.091,59.719 52.688,59.719ZM54.813,59.719C54.409,59.719 54.094,60.065 54.094,60.469C54.094,60.872 54.409,61.188 54.813,61.188C55.216,61.188 55.563,60.872 55.563,60.469C55.563,60.065 55.216,59.719 54.813,59.719ZM56.938,59.719C56.534,59.719 56.219,60.065 56.219,60.469C56.219,60.872 56.534,61.188 56.938,61.188C57.341,61.188 57.688,60.872 57.688,60.469C57.688,60.065 57.341,59.719 56.938,59.719ZM78.219,59.719C77.815,59.719 77.469,60.065 77.469,60.469C77.469,60.872 77.815,61.188 78.219,61.188C78.622,61.188 78.938,60.872 78.938,60.469C78.938,60.065 78.622,59.719 78.219,59.719ZM84.594,59.719C84.19,59.719 83.844,60.065 83.844,60.469C83.844,60.872 84.19,61.188 84.594,61.188C84.997,61.188 85.313,60.872 85.313,60.469C85.313,60.065 84.997,59.719 84.594,59.719ZM25.063,61.844C24.659,61.844 24.313,62.159 24.313,62.563C24.313,62.966 24.659,63.313 25.063,63.313C25.466,63.313 25.781,62.966 25.781,62.563C25.781,62.159 25.466,61.844 25.063,61.844ZM27.188,61.844C26.784,61.844 26.438,62.159 26.438,62.563C26.438,62.966 26.784,63.313 27.188,63.313C27.591,63.313 27.906,62.966 27.906,62.563C27.906,62.159 27.591,61.844 27.188,61.844ZM29.313,61.844C28.909,61.844 28.563,62.159 28.563,62.563C28.563,62.966 28.909,63.313 29.313,63.313C29.716,63.313 30.031,62.966 30.031,62.563C30.031,62.159 29.716,61.844 29.313,61.844ZM31.438,61.844C31.034,61.844 30.688,62.159 30.688,62.563C30.688,62.966 31.034,63.313 31.438,63.313C31.841,63.313 32.156,62.966 32.156,62.563C32.156,62.159 31.841,61.844 31.438,61.844ZM33.563,61.844C33.159,61.844 32.813,62.159 32.813,62.563C32.813,62.966 33.159,63.313 33.563,63.313C33.966,63.313 34.281,62.966 34.281,62.563C34.281,62.159 33.966,61.844 33.563,61.844ZM35.688,61.844C35.284,61.844 34.969,62.159 34.969,62.563C34.969,62.966 35.284,63.313 35.688,63.313C36.091,63.313 36.406,62.966 36.406,62.563C36.406,62.159 36.091,61.844 35.688,61.844ZM50.563,61.844C50.159,61.844 49.844,62.159 49.844,62.563C49.844,62.966 50.159,63.313 50.563,63.313C50.966,63.313 51.313,62.966 51.313,62.563C51.313,62.159 50.966,61.844 50.563,61.844ZM52.688,61.844C52.284,61.844 51.969,62.159 51.969,62.563C51.969,62.966 52.284,63.313 52.688,63.313C53.091,63.313 53.438,62.966 53.438,62.563C53.438,62.159 53.091,61.844 52.688,61.844ZM54.813,61.844C54.409,61.844 54.094,62.159 54.094,62.563C54.094,62.966 54.409,63.313 54.813,63.313C55.216,63.313 55.563,62.966 55.563,62.563C55.563,62.159 55.216,61.844 54.813,61.844ZM56.938,61.844C56.534,61.844 56.219,62.159 56.219,62.563C56.219,62.966 56.534,63.313 56.938,63.313C57.341,63.313 57.688,62.966 57.688,62.563C57.688,62.159 57.341,61.844 56.938,61.844ZM80.344,61.844C79.94,61.844 79.594,62.159 79.594,62.563C79.594,62.966 79.94,63.313 80.344,63.313C80.747,63.313 81.063,62.966 81.063,62.563C81.063,62.159 80.747,61.844 80.344,61.844ZM27.188,63.938C26.784,63.938 26.438,64.284 26.438,64.688C26.438,65.091 26.784,65.406 27.188,65.406C27.591,65.406 27.906,65.091 27.906,64.688C27.906,64.284 27.591,63.938 27.188,63.938ZM29.313,63.938C28.909,63.938 28.563,64.284 28.563,64.688C28.563,65.091 28.909,65.406 29.313,65.406C29.716,65.406 30.031,65.091 30.031,64.688C30.031,64.284 29.716,63.938 29.313,63.938ZM31.438,63.938C31.034,63.938 30.688,64.284 30.688,64.688C30.688,65.091 31.034,65.406 31.438,65.406C31.841,65.406 32.156,65.091 32.156,64.688C32.156,64.284 31.841,63.938 31.438,63.938ZM33.563,63.938C33.159,63.938 32.813,64.284 32.813,64.688C32.813,65.091 33.159,65.406 33.563,65.406C33.966,65.406 34.281,65.091 34.281,64.688C34.281,64.284 33.966,63.938 33.563,63.938ZM35.688,63.938C35.284,63.938 34.969,64.284 34.969,64.688C34.969,65.091 35.284,65.406 35.688,65.406C36.091,65.406 36.406,65.091 36.406,64.688C36.406,64.284 36.091,63.938 35.688,63.938ZM50.563,63.938C50.159,63.938 49.844,64.284 49.844,64.688C49.844,65.091 50.159,65.406 50.563,65.406C50.966,65.406 51.313,65.091 51.313,64.688C51.313,64.284 50.966,63.938 50.563,63.938ZM52.688,63.938C52.284,63.938 51.969,64.284 51.969,64.688C51.969,65.091 52.284,65.406 52.688,65.406C53.091,65.406 53.438,65.091 53.438,64.688C53.438,64.284 53.091,63.938 52.688,63.938ZM54.813,63.938C54.409,63.938 54.094,64.284 54.094,64.688C54.094,65.091 54.409,65.406 54.813,65.406C55.216,65.406 55.563,65.091 55.563,64.688C55.563,64.284 55.216,63.938 54.813,63.938ZM56.938,63.938C56.534,63.938 56.219,64.284 56.219,64.688C56.219,65.091 56.534,65.406 56.938,65.406C57.341,65.406 57.688,65.091 57.688,64.688C57.688,64.284 57.341,63.938 56.938,63.938ZM61.188,63.938C60.784,63.938 60.469,64.284 60.469,64.688C60.469,65.091 60.784,65.406 61.188,65.406C61.591,65.406 61.938,65.091 61.938,64.688C61.938,64.284 61.591,63.938 61.188,63.938ZM76.094,63.938C75.69,63.938 75.344,64.284 75.344,64.688C75.344,65.091 75.69,65.406 76.094,65.406C76.497,65.406 76.813,65.091 76.813,64.688C76.813,64.284 76.497,63.938 76.094,63.938ZM78.219,63.938C77.815,63.938 77.469,64.284 77.469,64.688C77.469,65.091 77.815,65.406 78.219,65.406C78.622,65.406 78.938,65.091 78.938,64.688C78.938,64.284 78.622,63.938 78.219,63.938ZM80.344,63.938C79.94,63.938 79.594,64.284 79.594,64.688C79.594,65.091 79.94,65.406 80.344,65.406C80.747,65.406 81.063,65.091 81.063,64.688C81.063,64.284 80.747,63.938 80.344,63.938ZM82.469,63.938C82.065,63.938 81.719,64.284 81.719,64.688C81.719,65.091 82.065,65.406 82.469,65.406C82.872,65.406 83.188,65.091 83.188,64.688C83.188,64.284 82.872,63.938 82.469,63.938ZM84.594,63.938C84.19,63.938 83.844,64.284 83.844,64.688C83.844,65.091 84.19,65.406 84.594,65.406C84.997,65.406 85.313,65.091 85.313,64.688C85.313,64.284 84.997,63.938 84.594,63.938ZM27.188,66.063C26.784,66.063 26.438,66.378 26.438,66.781C26.438,67.185 26.784,67.531 27.188,67.531C27.591,67.531 27.906,67.185 27.906,66.781C27.906,66.378 27.591,66.063 27.188,66.063ZM29.313,66.063C28.909,66.063 28.563,66.378 28.563,66.781C28.563,67.185 28.909,67.531 29.313,67.531C29.716,67.531 30.031,67.185 30.031,66.781C30.031,66.378 29.716,66.063 29.313,66.063ZM31.438,66.063C31.034,66.063 30.688,66.378 30.688,66.781C30.688,67.185 31.034,67.531 31.438,67.531C31.841,67.531 32.156,67.185 32.156,66.781C32.156,66.378 31.841,66.063 31.438,66.063ZM33.563,66.063C33.159,66.063 32.813,66.378 32.813,66.781C32.813,67.185 33.159,67.531 33.563,67.531C33.966,67.531 34.281,67.185 34.281,66.781C34.281,66.378 33.966,66.063 33.563,66.063ZM52.688,66.063C52.284,66.063 51.969,66.378 51.969,66.781C51.969,67.185 52.284,67.531 52.688,67.531C53.091,67.531 53.438,67.185 53.438,66.781C53.438,66.378 53.091,66.063 52.688,66.063ZM54.813,66.063C54.409,66.063 54.094,66.378 54.094,66.781C54.094,67.185 54.409,67.531 54.813,67.531C55.216,67.531 55.563,67.185 55.563,66.781C55.563,66.378 55.216,66.063 54.813,66.063ZM59.063,66.063C58.659,66.063 58.344,66.378 58.344,66.781C58.344,67.185 58.659,67.531 59.063,67.531C59.466,67.531 59.813,67.185 59.813,66.781C59.813,66.378 59.466,66.063 59.063,66.063ZM76.094,66.063C75.69,66.063 75.344,66.378 75.344,66.781C75.344,67.185 75.69,67.531 76.094,67.531C76.497,67.531 76.813,67.185 76.813,66.781C76.813,66.378 76.497,66.063 76.094,66.063ZM78.219,66.063C77.815,66.063 77.469,66.378 77.469,66.781C77.469,67.185 77.815,67.531 78.219,67.531C78.622,67.531 78.938,67.185 78.938,66.781C78.938,66.378 78.622,66.063 78.219,66.063ZM80.344,66.063C79.94,66.063 79.594,66.378 79.594,66.781C79.594,67.185 79.94,67.531 80.344,67.531C80.747,67.531 81.063,67.185 81.063,66.781C81.063,66.378 80.747,66.063 80.344,66.063ZM82.469,66.063C82.065,66.063 81.719,66.378 81.719,66.781C81.719,67.185 82.065,67.531 82.469,67.531C82.872,67.531 83.188,67.185 83.188,66.781C83.188,66.378 82.872,66.063 82.469,66.063ZM84.594,66.063C84.19,66.063 83.844,66.378 83.844,66.781C83.844,67.185 84.19,67.531 84.594,67.531C84.997,67.531 85.313,67.185 85.313,66.781C85.313,66.378 84.997,66.063 84.594,66.063ZM27.188,68.188C26.784,68.188 26.438,68.503 26.438,68.906C26.438,69.31 26.784,69.625 27.188,69.625C27.591,69.625 27.906,69.31 27.906,68.906C27.906,68.503 27.591,68.188 27.188,68.188ZM29.313,68.188C28.909,68.188 28.563,68.503 28.563,68.906C28.563,69.31 28.909,69.625 29.313,69.625C29.716,69.625 30.031,69.31 30.031,68.906C30.031,68.503 29.716,68.188 29.313,68.188ZM31.438,68.188C31.034,68.188 30.688,68.503 30.688,68.906C30.688,69.31 31.034,69.625 31.438,69.625C31.841,69.625 32.156,69.31 32.156,68.906C32.156,68.503 31.841,68.188 31.438,68.188ZM52.688,68.188C52.284,68.188 51.969,68.503 51.969,68.906C51.969,69.31 52.284,69.625 52.688,69.625C53.091,69.625 53.438,69.31 53.438,68.906C53.438,68.503 53.091,68.188 52.688,68.188ZM54.813,68.188C54.409,68.188 54.094,68.503 54.094,68.906C54.094,69.31 54.409,69.625 54.813,69.625C55.216,69.625 55.563,69.31 55.563,68.906C55.563,68.503 55.216,68.188 54.813,68.188ZM76.094,68.188C75.69,68.188 75.344,68.503 75.344,68.906C75.344,69.31 75.69,69.625 76.094,69.625C76.497,69.625 76.813,69.31 76.813,68.906C76.813,68.503 76.497,68.188 76.094,68.188ZM78.219,68.188C77.815,68.188 77.469,68.503 77.469,68.906C77.469,69.31 77.815,69.625 78.219,69.625C78.622,69.625 78.938,69.31 78.938,68.906C78.938,68.503 78.622,68.188 78.219,68.188ZM80.344,68.188C79.94,68.188 79.594,68.503 79.594,68.906C79.594,69.31 79.94,69.625 80.344,69.625C80.747,69.625 81.063,69.31 81.063,68.906C81.063,68.503 80.747,68.188 80.344,68.188ZM82.469,68.188C82.065,68.188 81.719,68.503 81.719,68.906C81.719,69.31 82.065,69.625 82.469,69.625C82.872,69.625 83.188,69.31 83.188,68.906C83.188,68.503 82.872,68.188 82.469,68.188ZM84.594,68.188C84.19,68.188 83.844,68.503 83.844,68.906C83.844,69.31 84.19,69.625 84.594,69.625C84.997,69.625 85.313,69.31 85.313,68.906C85.313,68.503 84.997,68.188 84.594,68.188ZM27.188,70.281C26.784,70.281 26.438,70.628 26.438,71.031C26.438,71.435 26.784,71.75 27.188,71.75C27.591,71.75 27.906,71.435 27.906,71.031C27.906,70.628 27.591,70.281 27.188,70.281ZM29.313,70.281C28.909,70.281 28.563,70.628 28.563,71.031C28.563,71.435 28.909,71.75 29.313,71.75C29.716,71.75 30.031,71.435 30.031,71.031C30.031,70.628 29.716,70.281 29.313,70.281ZM84.594,70.281C84.19,70.281 83.844,70.628 83.844,71.031C83.844,71.435 84.19,71.75 84.594,71.75C84.997,71.75 85.313,71.435 85.313,71.031C85.313,70.628 84.997,70.281 84.594,70.281ZM29.313,72.406C28.909,72.406 28.563,72.721 28.563,73.125C28.563,73.529 28.909,73.875 29.313,73.875C29.716,73.875 30.031,73.529 30.031,73.125C30.031,72.721 29.716,72.406 29.313,72.406Z"/>
    </g>
</svg>
